<?xml version="1.0" standalone="no"?>
<!DOCTYPE svg PUBLIC "-//W3C//DTD SVG 20010904//EN"
 "http://www.w3.org/TR/2001/REC-SVG-20010904/DTD/svg10.dtd">
<svg version="1.0" xmlns="http://www.w3.org/2000/svg"
 width="1080.000000pt" height="1080.000000pt" viewBox="0 0 1080.000000 1080.000000"
 preserveAspectRatio="xMidYMid meet">

<g transform="translate(0.000000,1080.000000) scale(0.100000,-0.100000)"
fill="#000000" stroke="none">
<path d="M5485 8532 c-44 -19 -114 -62 -103 -62 5 0 39 16 77 35 82 42 156 46
266 16 82 -23 97 -21 28 4 -72 26 -218 30 -268 7z"/>
<path d="M5874 8514 c22 -12 43 -15 84 -11 30 3 62 2 71 -2 9 -4 26 -13 38
-19 13 -7 32 -12 43 -12 12 0 37 -8 58 -19 50 -25 86 -36 78 -23 -4 6 15 8 52
6 40 -3 53 -1 42 6 -8 5 -40 9 -72 9 -41 -2 -68 4 -100 21 -54 29 -142 59
-160 56 -7 -2 -21 -6 -31 -11 -18 -8 -74 -3 -112 10 -11 3 -7 -1 9 -11z"/>
<path d="M5475 8496 c-27 -13 -59 -31 -70 -40 l-20 -16 20 7 c11 3 31 15 44
25 17 13 41 18 82 18 61 0 79 -15 32 -26 -16 -3 -67 -19 -114 -35 -101 -34
-106 -35 -88 -12 13 16 12 16 -16 0 -81 -44 -134 -57 -168 -42 -40 17 -217
-21 -217 -47 0 -6 8 -7 18 -3 26 11 82 15 82 6 0 -7 -132 -51 -155 -51 -5 0 3
11 18 25 15 14 27 31 27 38 -1 7 -8 3 -18 -9 -10 -11 -31 -29 -47 -39 -138
-88 -265 -241 -265 -319 0 -13 -17 -46 -37 -73 -41 -53 -113 -177 -113 -193 0
-5 8 -10 18 -10 19 0 70 62 137 166 22 34 55 83 74 109 19 27 29 45 23 41 -27
-17 -17 14 18 52 35 39 42 42 82 40 42 -3 90 -28 53 -28 -9 0 -14 -4 -11 -9 7
-11 -17 -21 -48 -21 -28 0 -46 -18 -39 -38 4 -9 2 -13 -4 -9 -14 9 -45 -2 -38
-13 2 -4 -7 -16 -20 -26 -14 -10 -25 -27 -25 -38 0 -25 -97 -169 -153 -227
-24 -25 -56 -49 -70 -53 -44 -11 -97 -47 -97 -66 0 -10 -6 -23 -14 -30 -19
-15 -66 -155 -66 -195 0 -23 -3 -27 -10 -15 -8 13 -11 11 -16 -7 -4 -13 -12
-23 -19 -23 -13 0 -35 41 -35 66 0 8 -4 12 -10 9 -5 -3 -10 -23 -10 -43 0 -28
3 -33 10 -22 7 11 10 4 10 -25 l0 -40 -21 33 c-12 18 -23 31 -25 29 -6 -6 24
-86 45 -121 10 -17 29 -62 41 -101 13 -38 31 -76 42 -85 17 -14 42 -109 39
-152 -5 -83 -18 -65 -32 42 -11 87 -14 100 -29 100 -5 0 -3 -19 5 -42 7 -24
19 -101 26 -173 14 -150 30 -192 139 -365 16 -25 32 -63 36 -85 4 -22 20 -67
36 -100 15 -33 28 -65 28 -71 0 -7 7 -27 15 -45 l16 -34 -6 40 c-7 54 -10 64
-29 107 -9 21 -16 44 -16 53 0 8 -4 15 -9 15 -13 0 -22 43 -10 55 6 6 12 2 15
-13 4 -12 11 -19 17 -15 5 3 7 1 3 -5 -3 -6 -2 -13 3 -17 6 -3 7 -13 4 -22 -4
-11 -3 -14 5 -9 8 5 12 -1 12 -18 0 -14 4 -27 9 -30 4 -3 11 -19 14 -36 4 -18
13 -30 22 -30 8 0 15 -5 15 -10 0 -6 -3 -9 -7 -9 -19 3 -27 -2 -15 -10 18 -11
27 -171 11 -171 -15 0 -4 -90 16 -134 l14 -31 -5 45 c-3 25 -7 60 -10 79 -5
28 -3 33 11 27 9 -3 23 -6 31 -6 8 0 14 -7 14 -15 0 -8 5 -15 10 -15 14 0 12
-28 -2 -32 -9 -3 -9 -6 0 -12 7 -4 12 -2 12 3 0 6 5 11 11 11 7 0 9 -9 6 -22
-4 -13 0 -26 9 -33 14 -9 11 -16 -20 -50 l-36 -40 10 35 c14 51 13 64 -4 48
-7 -7 -11 -19 -9 -26 4 -8 0 -10 -12 -6 -15 6 -16 4 -6 -14 6 -11 11 -31 11
-43 0 -21 5 -18 48 24 26 26 51 47 55 47 5 0 -17 -32 -47 -71 -31 -39 -56 -75
-56 -81 0 -10 46 -69 90 -117 14 -15 33 -54 43 -86 57 -188 89 -261 109 -249
5 3 16 -2 24 -12 14 -18 15 -18 9 4 -4 13 -22 54 -40 90 -18 37 -40 99 -50
137 -9 39 -21 75 -25 80 -5 6 -20 53 -35 105 -15 52 -29 97 -31 99 -1 2 -14
-9 -28 -24 -29 -31 -32 -29 -14 10 6 14 19 25 28 25 9 0 23 16 33 38 28 63 84
150 114 177 51 46 84 58 158 59 64 1 73 -2 110 -31 45 -36 155 -93 178 -93 21
0 128 -81 158 -119 33 -42 95 -52 199 -34 41 7 116 13 167 13 82 0 321 -15
383 -25 34 -5 242 -35 305 -43 74 -10 79 -25 85 -255 l5 -188 35 -29 c19 -16
50 -32 68 -36 54 -11 36 -23 -35 -22 -60 0 -65 2 -48 14 10 8 14 14 8 14 -24
0 -33 -26 -16 -50 15 -21 21 -22 87 -17 79 7 228 53 315 97 55 27 133 98 172
156 33 48 79 153 115 262 52 159 74 189 122 163 32 -17 198 -278 219 -343 6
-20 28 -24 39 -7 3 6 25 19 49 29 42 18 76 55 89 97 6 18 4 22 -7 17 -11 -4
-9 7 8 43 22 46 44 202 24 171 -13 -19 -11 10 3 72 11 49 12 50 26 28 9 -16
11 -17 8 -4 -4 10 -2 24 3 30 6 6 6 18 2 25 -6 10 -31 12 -94 10 -47 -2 -89
-8 -93 -12 -4 -4 -2 -27 5 -50 7 -23 15 -83 18 -133 l5 -92 -33 -16 c-17 -9
-47 -16 -66 -16 -23 0 -33 -5 -33 -15 0 -24 -14 -17 -34 16 -12 21 -20 58 -23
113 l-5 81 36 40 c19 22 41 41 48 41 7 1 19 2 26 3 25 2 3 17 -29 19 -59 5
-53 22 8 27 22 1 72 11 112 20 60 15 70 20 54 28 -10 6 -48 10 -85 9 -38 -2
-68 1 -68 5 0 4 22 22 50 40 44 29 69 40 111 47 8 1 24 8 37 15 34 18 52 7 52
-31 0 -18 4 -50 9 -70 5 -22 5 -38 0 -38 -5 0 -9 -5 -9 -11 0 -5 5 -7 12 -3
14 9 4 -101 -17 -184 -18 -69 -27 -148 -15 -136 16 17 69 220 76 289 3 39 19
111 35 161 16 50 29 103 29 119 0 27 -1 27 -45 21 -101 -16 -169 -53 -340
-187 -123 -96 -129 -107 -123 -226 4 -73 3 -91 -6 -77 -6 10 -11 57 -10 104 0
107 13 131 106 196 39 27 95 71 125 98 61 53 151 99 231 118 56 14 60 19 37
38 -8 7 -15 19 -15 26 0 7 -6 11 -12 9 -7 -3 -47 -9 -88 -13 l-75 -9 61 -7
c65 -9 93 -20 81 -32 -7 -7 -124 8 -174 22 -19 5 -23 2 -23 -17 0 -24 -46
-125 -70 -155 -8 -8 -48 -35 -89 -59 -42 -25 -88 -56 -103 -70 -16 -14 -28
-22 -28 -18 0 17 17 32 80 74 135 91 146 103 165 179 5 21 4 22 -5 8 -6 -10
-16 -18 -22 -18 -5 0 -36 -22 -67 -48 -31 -27 -70 -57 -87 -66 -42 -25 -84
-97 -84 -146 0 -35 -3 -40 -27 -46 -25 -7 -136 10 -178 27 -15 6 -11 8 19 8
34 1 46 8 88 53 26 28 48 58 48 66 0 13 -2 13 -17 0 -23 -20 -120 -31 -126
-15 -5 15 -86 15 -192 -1 -44 -7 -108 -15 -142 -19 -35 -3 -63 -9 -63 -13 0
-4 -20 -13 -45 -19 -30 -8 -45 -17 -45 -27 0 -14 -8 -16 -40 -11 -22 3 -43 1
-46 -4 -3 -5 3 -9 13 -9 15 0 14 -4 -7 -21 l-25 -21 28 7 c16 3 45 3 65 -1 34
-7 35 -8 13 -16 -13 -5 -32 -6 -42 -3 -11 4 -19 2 -19 -4 0 -5 -17 -13 -37
-16 -75 -12 -116 -45 -56 -45 14 0 23 -3 20 -7 -11 -10 -151 -5 -183 7 -15 6
-71 18 -124 25 -52 8 -117 19 -145 25 -52 11 -210 34 -350 52 -44 5 -105 13
-135 17 l-55 8 53 2 c33 0 51 5 47 11 -3 6 -16 10 -27 10 -20 0 -20 1 -5 18
10 10 17 28 17 40 0 17 -6 22 -26 22 -20 0 -24 4 -20 18 3 9 1 24 -4 32 -7 12
-10 8 -10 -15 -1 -27 -2 -28 -10 -9 -5 12 -13 25 -19 29 -16 9 -14 45 3 51 18
7 73 84 77 109 4 19 18 23 94 25 11 0 33 5 48 12 23 9 31 8 37 -3 11 -17 -6
-39 -34 -40 -12 -1 -6 -5 14 -8 30 -6 40 -3 68 23 l33 31 -30 10 c-22 8 -26
13 -17 21 21 20 50 31 94 39 26 4 42 12 42 21 0 8 5 14 10 14 6 0 10 -7 10
-15 0 -19 16 -20 23 -1 6 15 -12 26 -43 26 -26 0 -34 34 -16 69 20 39 53 61
91 62 40 1 119 26 87 28 -36 2 -15 21 23 21 18 0 35 5 37 10 4 13 94 37 167
45 30 3 59 9 64 12 19 11 77 15 77 4 0 -6 -7 -11 -15 -11 -8 0 -15 -5 -15 -11
0 -12 67 -4 85 10 6 5 33 16 60 26 28 10 56 23 63 28 6 5 12 6 12 2 0 -3 12 3
26 14 15 12 34 21 43 21 13 -1 13 -3 -3 -15 -18 -14 -17 -15 22 -15 23 0 47 6
54 13 6 8 22 12 35 9 12 -2 47 4 78 13 30 10 58 15 61 12 4 -3 -5 -9 -20 -13
-14 -3 -23 -10 -20 -15 10 -17 25 -9 66 32 41 41 53 45 99 34 21 -6 28 -1 45
30 18 35 74 77 74 55 0 -18 22 -10 27 10 3 11 10 20 15 20 6 0 7 -8 3 -17 -14
-33 -17 -63 -7 -63 21 0 34 31 30 75 -2 25 -1 45 2 45 12 -1 28 -17 34 -36 10
-31 36 -26 36 7 0 15 -4 30 -9 33 -5 4 -5 20 2 41 11 36 50 71 68 60 5 -4 23
-3 40 0 27 6 28 8 14 19 -16 11 -14 15 13 38 17 14 65 42 107 63 61 29 85 48
121 93 24 32 44 65 44 74 0 9 5 20 11 24 11 7 6 84 -8 122 -6 15 -5 16 12 2
17 -14 17 -14 8 5 -6 11 -25 49 -42 85 -17 36 -37 74 -44 85 -6 11 -32 51 -56
90 -49 79 -137 175 -161 175 -9 0 -4 -8 13 -19 35 -23 83 -74 97 -104 6 -12
-7 -2 -28 22 -26 28 -44 41 -52 36 -8 -5 -11 -4 -6 3 3 6 2 13 -4 17 -5 3 -10
0 -10 -7 0 -9 -3 -10 -8 -2 -19 29 -75 45 -174 49 -105 5 -158 -5 -158 -30 0
-7 -12 -21 -27 -30 -23 -15 -25 -15 -20 -2 3 9 2 19 -4 23 -6 3 -8 12 -5 20 3
7 -11 30 -30 50 -20 20 -33 39 -29 42 3 4 17 -8 31 -25 l24 -31 90 3 c51 1 87
-1 84 -6 -3 -5 0 -9 5 -9 6 0 11 6 11 14 0 17 -77 69 -90 61 -13 -8 -70 26
-70 42 0 7 -7 13 -15 13 -8 0 -15 4 -15 8 0 5 -8 18 -17 29 -18 20 -49 31
-108 39 l-30 4 28 -23 c27 -23 34 -41 18 -51 -5 -3 -8 2 -7 12 1 13 -6 17 -28
15 -16 -1 -42 5 -58 13 -17 9 -32 13 -35 10 -9 -9 26 -56 42 -56 8 0 15 -4 15
-8 0 -5 12 -14 26 -21 15 -6 24 -15 20 -18 -8 -8 -116 66 -116 79 0 6 -7 8
-15 4 -8 -3 -20 0 -28 7 -7 7 -21 17 -32 23 -10 5 -25 20 -33 32 -14 21 -13
22 4 16 17 -6 17 -5 4 8 -12 12 -146 59 -269 95 -9 2 -11 7 -5 12 11 11 91 -3
189 -32 39 -11 74 -21 80 -21 5 -1 10 -10 10 -20 0 -15 18 -26 79 -48 86 -30
106 -34 106 -17 0 6 -9 8 -20 4 -11 -3 -20 -2 -20 3 0 14 66 8 123 -10 26 -9
49 -12 52 -8 9 15 66 -23 59 -40 -3 -8 -2 -11 2 -7 4 4 13 2 21 -5 7 -6 16 -8
20 -4 3 3 1 6 -5 6 -19 0 -14 30 6 31 12 0 10 3 -8 11 -14 6 -28 10 -32 10 -4
-1 -5 5 -2 12 3 9 -14 32 -43 59 -26 24 -71 65 -100 91 l-52 47 19 -37 c24
-47 50 -75 65 -72 18 4 95 -60 95 -77 0 -23 -12 -18 -57 26 -36 34 -43 37 -43
21 0 -11 6 -23 13 -25 9 -4 9 -6 0 -6 -16 -1 -53 30 -47 40 2 4 -28 24 -68 44
-40 20 -74 32 -76 27 -5 -16 -95 5 -161 38 -73 36 -127 47 -263 54 -54 3 -110
8 -125 11 -25 6 -26 5 -9 -6 11 -7 40 -13 65 -14 57 -2 89 -14 69 -26 -10 -7
-11 -9 0 -9 7 0 11 -4 7 -9 -3 -6 -18 -4 -38 4 -17 7 -45 11 -61 8 -19 -4 -27
-2 -23 5 7 10 -22 27 -31 17 -3 -3 0 -5 6 -5 7 0 12 -5 12 -11 0 -8 -11 -9
-32 -5 -59 13 -153 27 -173 28 -59 0 -134 11 -129 19 3 5 22 6 44 3 21 -3 46
-1 56 5 17 9 17 11 -6 12 -45 2 -75 -2 -97 -13 -17 -8 -40 -8 -91 1 -37 7 -75
9 -85 5 -10 -3 -17 -1 -17 5 0 7 -6 11 -12 10 -18 -3 -49 12 -43 21 2 4 -36
17 -85 29 -49 12 -102 28 -117 36 -41 22 -101 18 -158 -9z m145 -50 c0 -2 -7
-6 -15 -10 -8 -3 -15 -1 -15 4 0 6 7 10 15 10 8 0 15 -2 15 -4z m30 -26 c0 -5
7 -10 15 -10 8 0 15 -4 15 -8 0 -4 -26 -5 -57 -2 -54 6 -93 0 -136 -22 -11 -5
-21 -7 -24 -4 -10 10 64 39 117 46 30 4 58 8 63 9 4 0 7 -3 7 -9z m263 -65
l52 -14 -91 5 c-55 3 -112 0 -140 -7 -27 -7 -103 -13 -169 -15 -99 -2 -136 -8
-215 -32 -94 -29 -190 -49 -178 -37 11 11 229 85 296 100 35 8 98 15 140 15
42 0 83 4 90 8 16 10 148 -4 215 -23z m682 -35 c3 -5 -1 -10 -9 -10 -9 0 -16
5 -16 10 0 6 4 10 9 10 6 0 13 -4 16 -10z m-1538 -52 c-6 -4 -15 -2 -20 5 -6
8 -7 6 -3 -5 3 -11 0 -18 -8 -18 -8 0 -16 6 -19 13 -3 9 -7 9 -18 0 -8 -6 -17
-12 -21 -12 -4 -1 -28 -10 -54 -21 -25 -11 -49 -20 -54 -20 -4 0 -13 -7 -20
-16 -8 -8 -22 -20 -32 -25 -17 -9 -18 -8 -10 8 18 33 46 51 127 81 107 40 108
40 127 28 12 -7 14 -12 5 -18z m1908 -6 c-3 -3 -11 0 -18 7 -9 10 -8 11 6 5
10 -3 15 -9 12 -12z m-537 1 c-10 -2 -28 -2 -40 0 -13 2 -5 4 17 4 22 1 32 -1
23 -4z m-1352 -26 c4 -3 -9 -10 -27 -15 -34 -9 -74 1 -65 17 6 9 83 7 92 -2z
m214 5 c0 -4 -10 -9 -22 -9 -13 -1 -33 -5 -45 -8 -13 -3 -23 -1 -23 4 0 5 15
12 33 14 17 2 38 5 45 5 6 1 12 -2 12 -6z m715 -6 l50 -14 -65 5 c-36 3 -74
10 -85 14 -36 14 46 10 100 -5z m472 -30 c4 -3 -16 -6 -43 -6 -27 0 -71 -1
-99 -1 -27 -1 -93 3 -145 8 -88 10 -82 10 93 8 103 -1 190 -5 194 -9z m-889
-13 c-10 -2 -28 -2 -40 0 -13 2 -5 4 17 4 22 1 32 -1 23 -4z m-878 -102 c-10
-21 -30 -37 -30 -26 0 14 21 45 31 45 6 0 6 -7 -1 -19z m837 3 c-3 -3 -12 -4
-19 -1 -8 3 -5 6 6 6 11 1 17 -2 13 -5z m258 -10 c13 -9 30 -12 37 -8 7 4 9 3
5 -1 -4 -5 3 -15 15 -23 18 -10 19 -12 3 -6 -82 28 -200 28 -269 -1 -36 -15
-95 -21 -83 -8 4 3 44 19 90 34 93 32 166 37 202 13z m-306 2 c-2 -2 -17 -6
-34 -10 -22 -5 -26 -4 -15 4 14 9 59 15 49 6z m1041 -36 c14 -5 -17 -6 -70 -3
-52 3 -97 7 -99 9 -8 8 145 2 169 -6z m-1040 -30 c0 -5 -9 -10 -21 -10 -11 0
-17 5 -14 10 3 6 13 10 21 10 8 0 14 -4 14 -10z m473 -7 c-7 -2 -19 -2 -25 0
-7 3 -2 5 12 5 14 0 19 -2 13 -5z m916 -30 c19 -13 38 -23 44 -23 6 0 25 -11
43 -25 18 -14 37 -25 42 -25 5 0 15 -7 22 -15 32 -38 -86 -2 -130 40 -19 19
-48 45 -65 59 -36 31 -8 24 44 -11z m-1453 12 c-11 -8 -27 -15 -35 -15 -13 1
-12 4 3 15 11 8 27 15 35 15 13 -1 12 -4 -3 -15z m-766 -15 c0 -5 -5 -10 -11
-10 -5 0 -7 5 -4 10 3 6 8 10 11 10 2 0 4 -4 4 -10z m692 -25 c-21 -16 -72
-30 -72 -21 0 9 74 43 83 38 5 -2 0 -10 -11 -17z m1203 0 c39 -13 61 -24 49
-24 -24 -1 -115 28 -128 40 -16 15 4 11 79 -16z m-1585 0 c-7 -8 -16 -12 -21
-9 -5 3 -9 -2 -9 -10 0 -10 -16 -19 -42 -26 -24 -5 -56 -14 -71 -19 -16 -6
-34 -8 -41 -5 -8 3 -16 -2 -20 -11 -4 -11 -12 -14 -27 -10 -14 5 -25 1 -35
-12 -13 -16 -14 -14 -12 22 2 31 7 40 23 43 18 2 18 2 3 -8 -10 -6 -18 -16
-18 -23 0 -8 3 -8 9 2 5 7 39 17 77 21 81 10 102 16 151 41 45 23 49 23 33 4z
m1237 -41 c-3 -3 -12 -4 -19 -1 -8 3 -5 6 6 6 11 1 17 -2 13 -5z m-936 -54
c-13 -11 -19 -20 -15 -20 12 -1 -18 -18 -64 -36 -28 -12 -34 -13 -24 -2 7 7
16 13 20 14 13 2 57 23 48 23 -11 1 36 40 49 40 6 0 -1 -9 -14 -19z m247 -7
c-10 -2 -26 -2 -35 0 -10 3 -2 5 17 5 19 0 27 -2 18 -5z m1157 -3 c14 -5 24
-14 21 -18 -3 -5 7 -17 21 -28 58 -43 65 -51 61 -69 -3 -17 -14 -10 -68 43
-35 34 -59 62 -54 62 5 0 2 5 -6 10 -19 13 -8 13 25 0z m982 2 c-3 -4 3 -23
14 -42 10 -19 18 -31 19 -27 1 19 40 -32 59 -76 21 -48 27 -76 14 -64 -3 4
-12 2 -19 -4 -11 -9 -15 -2 -20 30 -4 22 -12 39 -18 38 -6 -1 -10 6 -9 17 1
12 -2 15 -9 8 -7 -7 -6 -17 2 -32 6 -12 9 -24 7 -27 -9 -8 -35 39 -42 77 -4
19 -14 47 -21 62 -12 24 -12 28 4 37 21 13 25 13 19 3z m-1087 -62 c10 0 11
-3 3 -11 -13 -13 -79 -18 -96 -7 -9 6 -9 8 1 8 19 0 14 20 -5 21 -12 1 -9 4 7
8 15 4 35 2 50 -6 14 -7 32 -13 40 -13z m337 8 c-6 -24 15 -63 26 -51 4 3 7
-5 7 -18 0 -20 -2 -21 -11 -9 -8 11 -9 4 -6 -30 2 -25 2 -37 0 -27 -3 9 -9 17
-14 17 -5 0 -9 11 -9 25 0 14 -4 25 -9 25 -5 0 -12 19 -16 41 -4 26 -10 37
-15 29 -5 -8 -10 -9 -14 -2 -7 12 9 20 43 21 19 1 22 -3 18 -21z m342 -29
c-24 -14 -36 11 -14 27 18 13 20 13 23 -2 2 -9 -2 -20 -9 -25z m-975 25 c26
-10 18 -24 -14 -24 -29 0 -38 9 -23 23 8 9 17 9 37 1z m164 0 c12 -4 22 -10
22 -15 0 -13 -23 -10 -44 6 -21 16 -15 18 22 9z m1082 -76 c0 -5 -7 -8 -15 -8
-19 0 -35 31 -35 67 0 28 1 27 25 -12 13 -22 25 -43 25 -47z m48 30 c8 -30 7
-36 -4 -31 -8 3 -14 9 -14 13 0 4 -3 23 -6 41 -9 45 11 27 24 -23z m-1933 2
c17 -5 55 -14 85 -19 51 -9 49 -10 -25 -4 -44 3 -88 6 -97 7 -10 0 -18 4 -18
8 0 4 -44 8 -97 8 -70 0 -94 3 -83 10 17 12 186 4 235 -10z m1985 -20 c0 -16
3 -35 6 -44 3 -9 2 -16 -3 -16 -11 0 -29 34 -37 72 -5 22 -3 25 14 21 14 -4
20 -14 20 -33z m-1265 -17 c38 -52 49 -92 14 -52 -11 13 -30 35 -43 49 -34 39
-39 50 -22 50 9 0 31 -21 51 -47z m40 37 c-3 -5 11 -27 31 -50 20 -22 32 -40
27 -40 -12 0 -47 38 -62 67 -14 27 -14 33 0 33 5 0 8 -4 4 -10z m1031 -17
c-10 -10 -19 5 -10 18 6 11 8 11 12 0 2 -7 1 -15 -2 -18z m-2237 -7 c-2 -2
-17 -6 -34 -9 l-30 -6 30 13 c26 12 47 13 34 2z m2374 -30 c4 -10 1 -13 -9 -9
-15 6 -19 23 -5 23 5 0 11 -7 14 -14z m-1870 -13 c-7 -2 -21 -2 -30 0 -10 3
-4 5 12 5 17 0 24 -2 18 -5z m503 -38 c-7 -18 -26 -20 -26 -2 0 18 24 41 28
27 2 -6 1 -17 -2 -25z m-1424 -10 c3 -26 1 -34 -9 -31 -7 3 -13 -1 -13 -10 0
-16 30 -16 42 1 4 6 8 0 8 -12 0 -12 -5 -23 -10 -25 -6 -2 -14 -51 -17 -111
-7 -124 -20 -127 -18 -4 0 45 -1 72 -3 59 -7 -45 -22 -9 -22 54 0 50 4 66 16
71 11 4 12 8 4 13 -7 4 -9 13 -6 19 13 21 24 11 28 -24z m2077 -33 c-13 -40
-69 -125 -77 -117 -3 3 4 18 15 33 32 43 53 89 53 115 0 13 3 27 8 31 13 14
14 -23 1 -62z m871 48 c0 -5 -2 -10 -4 -10 -3 0 -8 5 -11 10 -3 6 -1 10 4 10
6 0 11 -4 11 -10z m-1602 -75 l0 -30 -8 30 c-4 17 -8 41 -8 55 l0 25 8 -25 c4
-14 8 -38 8 -55z m837 -2 c-4 -25 -10 -33 -21 -29 -23 9 -49 -9 -74 -49 -12
-20 -25 -34 -27 -31 -9 8 44 91 82 130 19 20 36 42 36 49 1 6 4 1 6 -12 3 -13
2 -39 -2 -58z m-275 7 c0 -11 -4 -20 -9 -20 -6 0 -9 9 -8 20 1 11 5 20 9 20 4
0 8 -9 8 -20z m530 14 c0 -10 -121 -127 -126 -122 -6 6 106 128 117 128 5 0 9
-3 9 -6z m-2335 -31 c-15 -61 -58 -133 -71 -120 -7 6 10 65 32 115 19 41 49
45 39 5z m-199 -86 c1 -50 9 -125 18 -166 16 -77 14 -104 -4 -57 -16 42 -40
167 -40 206 0 30 17 110 23 110 1 0 3 -42 3 -93z m964 11 c0 -40 -5 -91 -11
-112 -10 -36 -12 -38 -22 -20 -11 19 -12 178 -1 195 3 5 12 9 20 9 11 0 14
-16 14 -72z m2250 26 c0 -8 -4 -14 -10 -14 -5 0 -10 -21 -11 -47 -1 -68 -20
-114 -59 -140 -18 -13 -37 -23 -43 -23 -5 0 5 10 24 23 34 23 44 45 70 169 7
32 16 55 21 52 4 -3 8 -12 8 -20z m-2610 -51 c0 -26 6 -54 14 -62 14 -17 34
-112 21 -99 -5 5 -14 -1 -22 -12 -20 -29 -28 -25 -41 19 -15 48 -15 138 -1
179 15 43 29 31 29 -25z m-669 33 c0 -5 -13 -11 -28 -12 -27 -3 -27 -2 -8 12
20 15 37 15 36 0z m769 -120 c-5 -16 -11 -50 -11 -75 l-1 -46 -9 40 c-14 73
-14 182 2 201 13 15 15 12 22 -37 4 -32 3 -65 -3 -83z m-314 113 c6 -11 8 -29
13 -111 1 -33 21 -38 22 -5 1 12 5 3 10 -21 4 -23 17 -55 27 -70 10 -15 22
-36 25 -47 5 -16 3 -14 -11 5 -33 47 -101 110 -107 100 -4 -6 -2 -17 4 -24 12
-14 5 -26 -16 -26 -18 0 -19 180 -1 198 15 15 25 15 34 1z m1009 -59 c39 -78
45 -100 15 -55 -21 30 -60 109 -60 119 0 18 14 -2 45 -64z m-369 26 c-4 -34
-25 -82 -26 -59 0 6 -3 19 -7 29 -4 12 -3 15 5 10 8 -5 10 -2 6 9 -5 13 11 45
22 45 2 0 2 -15 0 -34z m160 22 c4 -6 -5 -22 -22 -36 -16 -14 -37 -43 -46 -66
-15 -37 -17 -39 -17 -13 -1 15 -4 27 -8 27 -5 0 -23 -23 -41 -51 -18 -28 -36
-49 -38 -46 -8 8 45 114 74 148 36 43 83 61 98 37z m1316 -23 c-6 -12 -11 -14
-16 -6 -4 6 -2 11 4 11 7 0 9 7 5 18 -5 13 -3 14 5 5 8 -7 9 -17 2 -28z
m-2577 14 c8 -13 6 -15 -23 -24 -22 -6 -22 -5 -10 14 14 23 24 26 33 10z
m-201 -34 c-20 -49 -18 -50 20 -7 21 23 45 38 61 40 l28 2 -29 -22 c-68 -53
-102 -95 -124 -156 -39 -107 -38 -64 2 101 8 33 38 77 52 77 3 0 -2 -16 -10
-35z m1020 9 c3 -9 6 -43 6 -77 0 -84 -22 -61 -26 28 -2 61 7 84 20 49z m26 6
c0 -5 -4 -10 -10 -10 -5 0 -10 5 -10 10 0 6 5 10 10 10 6 0 10 -4 10 -10z
m-843 -32 c-3 -8 -6 -5 -6 6 -1 11 2 17 5 13 3 -3 4 -12 1 -19z m493 7 c0 -8
-4 -15 -10 -15 -5 0 -10 7 -10 15 0 8 5 15 10 15 6 0 10 -7 10 -15z m417 -57
c-3 -8 -6 -5 -6 6 -1 11 2 17 5 13 3 -3 4 -12 1 -19z m869 -25 c-10 -10 -19 5
-10 18 6 11 8 11 12 0 2 -7 1 -15 -2 -18z m901 0 c-2 -10 -8 -27 -13 -38 -6
-16 -5 -18 7 -9 8 6 33 14 57 18 37 5 42 4 42 -13 0 -24 -39 -73 -52 -65 -5 3
-7 17 -3 31 5 21 4 23 -14 13 -11 -5 -23 -15 -26 -20 -4 -6 -24 -19 -46 -30
-32 -17 -39 -18 -39 -6 0 8 5 18 11 22 7 4 9 25 7 55 -5 52 -1 57 46 58 22 1
27 -3 23 -16z m-380 -25 c-3 -7 -5 -2 -5 12 0 14 2 19 5 13 2 -7 2 -19 0 -25z
m-437 5 c0 -14 -19 -38 -25 -32 -8 8 5 39 16 39 5 0 9 -3 9 -7z m70 -32 c-20
-29 -40 -40 -40 -23 0 11 51 64 57 58 3 -3 -5 -19 -17 -35z m-1784 -29 c-12
-12 -18 8 -10 35 l8 28 4 -28 c2 -16 1 -31 -2 -35z m2168 -21 c-2 -20 -2 -30
2 -23 11 23 24 12 24 -19 0 -24 -4 -30 -15 -25 -11 4 -17 -3 -22 -24 -6 -34
-9 -36 -29 -16 -26 26 -14 152 15 158 23 5 30 -10 25 -51z m-641 -26 c11 5 16
-3 19 -32 8 -57 -4 -71 -30 -38 -18 23 -23 25 -28 11 -12 -32 -26 -16 -19 21
9 49 14 56 30 43 7 -6 19 -8 28 -5z m367 -10 c10 -12 10 -18 0 -30 -11 -13
-15 -13 -21 -3 -6 9 -9 6 -9 -9 0 -13 -4 -23 -10 -23 -11 0 -13 39 -4 64 8 20
28 21 44 1z m-650 -15 c-14 -26 5 -26 80 0 39 13 49 14 35 4 -29 -21 -151 -51
-140 -34 3 5 0 10 -7 10 -7 0 -2 9 12 20 31 25 33 25 20 0z m461 -57 c-9 -16
-10 -15 -11 7 0 14 4 36 8 50 7 24 7 24 10 -7 2 -18 -1 -41 -7 -50z m-270 -15
l-9 -33 -1 41 c-1 22 2 44 7 48 12 12 14 -19 3 -56z m-1903 -44 c13 -31 20
-59 17 -62 -7 -7 -9 -4 -32 61 -27 73 -15 74 15 1z m2249 40 c-3 -3 -12 -4
-19 -1 -8 3 -5 6 6 6 11 1 17 -2 13 -5z m952 -18 c-14 -14 -258 -106 -279
-105 -21 1 -19 2 10 10 41 11 71 25 121 55 38 24 166 58 148 40z m-2559 -81
c0 -5 -14 5 -30 23 -17 18 -30 38 -30 45 1 6 14 -4 30 -23 17 -19 30 -39 30
-45z m1957 49 c-3 -3 -12 -4 -19 -1 -8 3 -5 6 6 6 11 1 17 -2 13 -5z m104 -47
c-13 -12 -20 -15 -16 -7 14 26 28 41 33 35 3 -3 -5 -16 -17 -28z m-966 -142
c22 -13 77 -29 123 -36 56 -8 78 -16 68 -21 -9 -5 -53 -2 -106 7 -103 18 -122
24 -115 35 3 5 -3 11 -14 15 -11 3 -25 13 -33 22 -11 14 -10 15 12 8 14 -4 43
-18 65 -30z m-1679 -219 c4 -16 11 -23 20 -19 16 6 17 2 8 -21 -3 -9 -11 -16
-18 -16 -12 0 -36 45 -36 67 0 23 19 14 26 -11z m39 -87 c0 -8 6 -20 13 -27 6
-7 12 -18 12 -23 0 -14 -31 18 -34 34 -1 6 -5 18 -10 26 -6 9 -5 12 5 9 8 -3
14 -11 14 -19z m78 -48 c3 8 6 2 6 -13 1 -14 6 -28 12 -30 5 -2 13 -22 16 -46
3 -23 12 -47 19 -53 25 -20 15 -31 -11 -12 -13 10 -25 27 -25 38 0 11 -6 29
-14 40 -7 11 -16 32 -19 47 -4 14 -9 34 -13 45 -3 10 1 8 9 -6 11 -18 16 -20
20 -10z m-3 -102 c0 -7 -6 -4 -15 7 -19 25 -19 40 0 20 8 -8 15 -20 15 -27z
m130 -109 c0 -5 -2 -10 -4 -10 -3 0 -8 5 -11 10 -3 6 -1 10 4 10 6 0 11 -4 11
-10z m776 -70 c20 0 17 -11 -15 -46 -47 -51 -142 -55 -98 -4 29 33 91 72 95
60 2 -6 10 -10 18 -10z m2644 -99 c0 -11 -29 -35 -35 -29 -10 9 7 38 21 38 8
0 14 -4 14 -9z m-2480 -90 c0 -6 -4 -13 -10 -16 -5 -3 -10 1 -10 9 0 9 5 16
10 16 6 0 10 -4 10 -9z m-26 -20 c22 -24 13 -41 -20 -41 -29 0 -42 24 -24 45
16 20 23 19 44 -4z m1576 -22 c13 -9 12 -10 -2 -5 -10 3 -20 1 -23 -3 -2 -5
-25 -12 -50 -15 -25 -4 -45 -11 -45 -17 0 -5 -15 -9 -32 -8 -27 0 -29 2 -13 8
11 5 22 8 25 8 3 0 21 10 40 22 38 23 77 27 100 10z m-11 -103 c-3 -3 -36 -10
-74 -16 -39 -6 -98 -18 -133 -26 -72 -18 -97 -12 -31 7 100 28 254 50 238 35z
m-324 -71 c-16 -7 -46 -15 -65 -19 -37 -6 -24 2 35 22 43 14 65 13 30 -3z
m-447 -31 c12 -4 22 -10 22 -15 0 -13 -41 -10 -75 6 l-30 13 30 1 c17 0 40 -2
53 -5z m82 -29 c0 -8 -6 -16 -12 -16 -7 -1 0 -4 16 -8 16 -3 31 -12 34 -19 7
-21 -138 -12 -152 10 -15 25 0 34 37 20 29 -11 33 -10 46 8 16 24 31 26 31 5z
m524 -15 c14 -5 26 -13 26 -18 0 -7 -99 -62 -113 -62 -3 0 -10 14 -16 30 -8
25 -7 32 4 37 9 3 22 0 30 -7 16 -14 35 -5 35 16 0 17 1 17 34 4z m-164 -16
c0 -8 -67 -34 -90 -34 -27 0 -26 18 3 30 24 10 87 13 87 4z m198 -56 c-2 -6
-10 -14 -16 -16 -7 -2 -10 2 -6 12 7 18 28 22 22 4z m-2218 -58 c0 -5 -4 -10
-10 -10 -5 0 -10 5 -10 10 0 6 5 10 10 10 6 0 10 -4 10 -10z m2530 -23 c0 -48
-31 -125 -88 -219 -49 -82 -112 -156 -112 -133 0 4 -6 3 -13 -3 -30 -25 -134
-55 -194 -56 -52 -1 -58 -3 -36 -10 38 -13 163 9 221 38 70 35 127 99 179 199
25 48 47 86 50 83 2 -2 -10 -39 -28 -81 -61 -147 -187 -247 -329 -261 -79 -8
-146 8 -153 35 -2 11 -15 21 -28 23 -23 4 -23 5 -4 12 11 4 27 11 35 15 21 11
40 3 40 -17 1 -15 2 -15 15 2 12 16 17 17 30 6 12 -10 15 -10 15 5 0 10 5 15
13 12 7 -2 30 -1 52 3 l40 8 -35 2 c-29 1 -25 4 30 16 36 8 69 12 75 11 29
-10 40 107 11 125 -7 5 -7 8 3 8 8 0 11 3 8 7 -10 9 50 44 65 38 26 -9 55 27
113 136 13 26 25 24 25 -4z m-2512 -33 c-3 -14 -5 -12 -10 9 -3 19 -2 25 4 19
6 -6 8 -18 6 -28z m2942 -22 c-8 -3 -20 -9 -26 -13 -7 -6 -17 -3 -25 8 -12 15
-12 16 4 10 9 -3 17 -2 17 2 0 5 10 7 22 3 16 -4 18 -7 8 -10z m90 -14 c0 -25
-40 -77 -70 -93 -16 -8 -30 -13 -30 -10 0 3 18 30 40 60 40 54 60 68 60 43z
m22 -20 c-7 -7 -12 -8 -12 -2 0 14 12 26 19 19 2 -3 -1 -11 -7 -17z m-1089
-415 c-7 -2 -19 -2 -25 0 -7 3 -2 5 12 5 14 0 19 -2 13 -5z"/>
<path d="M7645 7830 c3 -5 8 -10 11 -10 2 0 4 5 4 10 0 6 -5 10 -11 10 -5 0
-7 -4 -4 -10z"/>
<path d="M5281 7294 c0 -11 3 -14 6 -6 3 7 2 16 -1 19 -3 4 -6 -2 -5 -13z"/>
<path d="M7125 5410 c-3 -5 -1 -10 4 -10 6 0 11 5 11 10 0 6 -2 10 -4 10 -3 0
-8 -4 -11 -10z"/>
<path d="M7131 5364 c0 -11 3 -14 6 -6 3 7 2 16 -1 19 -3 4 -6 -2 -5 -13z"/>
<path d="M6966 5255 c-15 -14 -22 -25 -17 -25 6 0 20 9 32 21 17 17 23 18 37
7 15 -12 16 -11 3 5 -18 22 -23 22 -55 -8z"/>
<path d="M6760 5230 c0 -5 4 -10 9 -10 6 0 13 5 16 10 3 6 -1 10 -9 10 -9 0
-16 -4 -16 -10z"/>
<path d="M6165 8514 c47 -7 163 -9 152 -2 -7 4 -48 7 -92 6 -44 0 -71 -2 -60
-4z"/>
<path d="M6353 8493 c9 -2 23 -2 30 0 6 3 -1 5 -18 5 -16 0 -22 -2 -12 -5z"/>
<path d="M6405 8490 c2 -4 26 -13 52 -20 27 -8 72 -25 101 -38 29 -13 55 -22
57 -20 4 3 -39 23 -150 68 -32 13 -65 19 -60 10z"/>
<path d="M5340 8450 c-14 -11 -31 -20 -39 -20 -8 0 -11 -3 -7 -7 8 -8 76 26
76 39 0 11 -1 10 -30 -12z"/>
<path d="M5856 8441 c5 -5 23 -13 39 -16 l30 -7 -29 16 c-31 18 -56 22 -40 7z"/>
<path d="M6680 8400 c8 -5 22 -9 30 -9 10 0 8 3 -5 9 -27 12 -43 12 -25 0z"/>
<path d="M5213 8393 c9 -2 25 -2 35 0 9 3 1 5 -18 5 -19 0 -27 -2 -17 -5z"/>
<path d="M6750 8382 c8 -5 26 -13 40 -16 17 -5 20 -4 10 2 -8 5 -26 13 -40 16
-17 5 -20 4 -10 -2z"/>
<path d="M6868 8343 c7 -3 16 -2 19 1 4 3 -2 6 -13 5 -11 0 -14 -3 -6 -6z"/>
<path d="M6940 8341 c8 -6 25 -11 36 -11 12 0 38 -7 59 -16 20 -8 39 -13 41
-11 7 7 -68 35 -112 42 -29 5 -35 4 -24 -4z"/>
<path d="M7315 8213 c17 -8 37 -21 46 -27 8 -6 2 1 -13 17 -16 15 -36 27 -46
27 -11 -1 -7 -6 13 -17z"/>
<path d="M7304 8172 c4 -6 21 -19 38 -28 16 -8 28 -18 25 -20 -7 -7 70 -84
118 -119 22 -16 42 -32 45 -36 3 -3 21 -9 40 -13 l35 -6 -40 19 c-22 10 -66
46 -98 80 -32 33 -61 61 -64 61 -3 0 -14 11 -25 25 -11 14 -27 25 -37 25 -9 0
-23 6 -30 13 -11 10 -13 9 -7 -1z"/>
<path d="M7400 8151 c0 -5 10 -13 23 -16 12 -4 36 -17 52 -29 46 -34 64 -41
30 -13 -41 35 -105 70 -105 58z"/>
<path d="M7577 8035 c10 -13 25 -27 33 -30 8 -4 2 8 -14 24 -36 37 -43 40 -19
6z"/>
<path d="M4542 7965 c-20 -19 -32 -34 -27 -34 15 0 92 69 77 69 -7 0 -29 -16
-50 -35z"/>
<path d="M4532 7917 c-12 -13 -31 -50 -43 -82 -11 -33 -27 -71 -36 -83 -8 -13
-13 -26 -10 -28 7 -8 23 19 42 70 10 27 34 66 52 88 46 56 43 82 -5 35z"/>
<path d="M4380 7680 c-14 -10 -22 -21 -19 -24 3 -3 16 5 29 19 28 30 24 32
-10 5z"/>
<path d="M4450 7669 c0 -5 5 -7 10 -4 6 3 10 8 10 11 0 2 -4 4 -10 4 -5 0 -10
-5 -10 -11z"/>
<path d="M4324 7593 c3 -6 3 -13 -2 -15 -11 -4 -68 -100 -87 -144 -9 -22 -12
-42 -6 -51 5 -9 6 -25 3 -37 -3 -16 -2 -18 7 -10 7 6 19 37 27 68 8 32 29 84
46 118 24 47 28 62 18 71 -10 9 -11 9 -6 0z"/>
<path d="M4223 7531 c-34 -32 -61 -83 -68 -131 -4 -33 -3 -41 4 -30 6 8 11 23
11 33 0 23 37 96 63 125 25 27 19 29 -10 3z"/>
<path d="M7883 7257 c-35 -49 -46 -67 -41 -67 8 0 80 101 76 105 -3 3 -18 -14
-35 -38z"/>
<path d="M7616 6957 c3 -10 9 -15 12 -12 3 3 0 11 -7 18 -10 9 -11 8 -5 -6z"/>
<path d="M6157 6413 c-15 -14 -5 -22 37 -28 62 -10 77 -2 37 18 -36 18 -63 22
-74 10z"/>
<path d="M9020 6407 c27 -15 36 -14 25 2 -3 6 -16 11 -28 11 -21 0 -21 -1 3
-13z"/>
<path d="M8936 6373 c9 -51 14 -54 14 -10 0 20 -5 39 -11 42 -7 5 -8 -5 -3
-32z"/>
<path d="M8877 6368 c8 -44 13 -48 13 -10 0 17 -4 34 -10 37 -6 4 -7 -6 -3
-27z"/>
<path d="M1978 6353 c7 -3 16 -2 19 1 4 3 -2 6 -13 5 -11 0 -14 -3 -6 -6z"/>
<path d="M2830 6330 c0 -5 5 -10 11 -10 5 0 7 5 4 10 -3 6 -8 10 -11 10 -2 0
-4 -4 -4 -10z"/>
<path d="M1878 6278 c-29 -34 -33 -44 -23 -53 8 -5 15 -32 17 -59 2 -38 -1
-51 -15 -60 -15 -9 -21 -7 -32 7 -10 14 -15 15 -21 5 -20 -32 -13 -38 52 -38
l64 0 0 104 c0 57 3 111 6 120 11 28 -10 17 -48 -26z"/>
<path d="M1981 6297 c8 -7 15 -21 16 -32 1 -39 21 -177 27 -182 7 -7 174 -8
181 -1 8 7 -67 114 -122 172 -43 46 -58 56 -85 56 -28 -1 -31 -3 -17 -13z m89
-57 c0 -5 -2 -10 -4 -10 -3 0 -8 5 -11 10 -3 6 -1 10 4 10 6 0 11 -4 11 -10z
m32 -48 c-7 -2 -12 -10 -12 -18 0 -8 -6 -14 -12 -14 -7 0 2 -8 20 -16 36 -19
43 -39 10 -30 -13 3 -35 6 -50 6 l-27 0 24 26 c13 14 27 35 30 45 4 11 11 16
18 12 8 -5 8 -8 -1 -11z"/>
<path d="M8551 6294 c0 -11 3 -14 6 -6 3 7 2 16 -1 19 -3 4 -6 -2 -5 -13z"/>
<path d="M8890 6252 c0 -22 4 -43 9 -46 5 -4 7 12 4 36 -8 57 -13 61 -13 10z"/>
<path d="M2363 6268 c-28 -33 -79 -188 -62 -188 5 0 9 10 9 23 1 24 28 90 29
70 1 -7 6 -13 11 -13 6 0 9 10 7 23 -2 12 -2 16 0 10 6 -18 23 -16 23 3 0 8 5
12 10 9 11 -7 4 37 -10 63 -5 11 -8 11 -17 0z"/>
<path d="M8966 6244 c-3 -9 -2 -22 2 -31 6 -10 9 -5 9 16 0 35 -2 38 -11 15z"/>
<path d="M6020 6240 c-22 -7 -21 -8 13 -9 20 -1 37 4 37 9 0 11 -14 11 -50 0z"/>
<path d="M6080 6240 c0 -5 7 -7 15 -4 8 4 15 8 15 10 0 2 -7 4 -15 4 -8 0 -15
-4 -15 -10z"/>
<path d="M5734 6186 c-9 -22 -6 -24 44 -18 40 4 60 22 25 22 -10 0 -28 3 -40
6 -16 4 -25 1 -29 -10z"/>
<path d="M1776 6144 c-5 -14 -4 -15 9 -4 17 14 19 20 6 20 -5 0 -12 -7 -15
-16z"/>
<path d="M2423 6125 c-8 -9 -9 -16 -3 -20 6 -3 10 -1 10 5 0 6 5 8 10 5 6 -3
10 1 10 9 0 20 -11 20 -27 1z"/>
<path d="M4601 6044 c0 -11 3 -14 6 -6 3 7 2 16 -1 19 -3 4 -6 -2 -5 -13z"/>
<path d="M7780 6040 c0 -5 5 -10 10 -10 6 0 10 5 10 10 0 6 -4 10 -10 10 -5 0
-10 -4 -10 -10z"/>
<path d="M1822 6008 c-44 -10 -49 -28 -7 -28 13 0 38 -12 55 -26 17 -15 32
-25 34 -23 2 2 6 23 10 47 6 41 6 42 -21 41 -16 -1 -47 -5 -71 -11z"/>
<path d="M2027 5993 c-11 -11 -8 -61 5 -69 7 -5 9 -2 6 7 -3 8 -2 23 3 34 7
19 8 19 8 -2 1 -13 6 -23 11 -23 13 0 13 16 0 41 -11 20 -22 24 -33 12z"/>
<path d="M2073 5986 c2 -5 34 -11 70 -11 45 -1 66 2 64 9 -2 6 -31 11 -70 11
-39 0 -66 -3 -64 -9z"/>
<path d="M2296 5985 c-3 -9 -5 -38 -5 -63 2 -47 2 -47 9 13 8 62 7 78 -4 50z"/>
<path d="M2333 5983 c9 -2 25 -2 35 0 9 3 1 5 -18 5 -19 0 -27 -2 -17 -5z"/>
<path d="M2170 5945 c0 -8 -5 -15 -11 -15 -5 0 -7 -4 -4 -10 3 -5 -1 -10 -9
-10 -9 0 -16 -4 -16 -10 0 -15 38 -12 43 3 3 9 7 9 19 0 13 -11 15 -8 16 22 1
29 -2 35 -18 35 -11 0 -20 -7 -20 -15z"/>
<path d="M2310 5923 c0 -13 5 -23 10 -23 13 0 13 11 0 30 -8 12 -10 11 -10 -7z"/>
<path d="M8010 5930 c-13 -8 -12 -10 3 -10 9 0 17 5 17 10 0 12 -1 12 -20 0z"/>
<path d="M1750 5926 c0 -2 7 -6 15 -10 8 -3 15 -1 15 4 0 6 -7 10 -15 10 -8 0
-15 -2 -15 -4z"/>
<path d="M5030 5853 c-68 -21 -120 -48 -120 -60 0 -13 3 -13 15 -3 8 7 15 9
15 4 0 -5 4 -4 8 2 10 16 109 43 135 36 35 -9 68 -34 63 -47 -2 -7 6 -23 20
-36 34 -32 30 -46 -21 -91 -49 -43 -54 -63 -8 -30 50 35 65 32 83 -17 16 -40
18 -42 33 -26 37 36 8 122 -64 194 -59 58 -120 87 -159 74z"/>
<path d="M8910 5840 c0 -5 5 -10 11 -10 5 0 7 5 4 10 -3 6 -8 10 -11 10 -2 0
-4 -4 -4 -10z"/>
<path d="M8080 5821 c0 -20 5 -21 88 -21 59 0 94 5 107 14 17 12 12 14 -45 15
-36 0 -84 3 -107 7 -39 6 -43 4 -43 -15z"/>
<path d="M8730 5830 c0 -16 34 -20 48 -6 13 13 11 15 -16 14 -18 -1 -32 -4
-32 -8z"/>
<path d="M8640 5820 c0 -7 14 -8 38 -4 51 9 53 14 4 14 -23 0 -42 -5 -42 -10z"/>
<path d="M8590 5816 c0 -2 9 -6 20 -9 11 -3 20 -1 20 4 0 5 -9 9 -20 9 -11 0
-20 -2 -20 -4z"/>
<path d="M4886 5754 c-4 -14 -5 -28 -3 -31 3 -2 8 8 11 23 4 14 5 28 3 31 -3
2 -8 -8 -11 -23z"/>
<path d="M8925 5743 c1 -38 -13 -57 -31 -42 -11 9 -14 6 -14 -15 0 -14 5 -26
11 -26 5 0 7 5 4 10 -3 6 -2 10 4 10 5 0 12 -6 14 -12 4 -10 8 -9 16 2 12 17
15 100 3 100 -4 0 -7 -12 -7 -27z"/>
<path d="M8173 5753 c-55 -3 -73 -7 -73 -18 0 -10 8 -13 28 -10 15 2 53 7 84
10 32 4 60 11 63 16 4 5 -2 8 -12 7 -10 -1 -51 -4 -90 -5z"/>
<path d="M8723 5750 c-18 -7 -22 -16 -20 -41 2 -27 8 -34 32 -41 16 -4 30 -6
31 -5 0 1 4 23 7 50 7 51 -1 57 -50 37z"/>
<path d="M8820 5703 c0 -35 4 -53 9 -47 11 11 14 27 12 72 -2 56 -21 34 -21
-25z"/>
<path d="M7683 5727 c-54 -14 -55 -27 -3 -27 22 0 40 -5 40 -11 0 -5 5 -7 10
-4 12 7 14 56 3 54 -5 -1 -27 -7 -50 -12z"/>
<path d="M5558 5665 c2 -14 6 -25 8 -25 2 0 4 11 4 25 0 14 -4 25 -9 25 -4 0
-6 -11 -3 -25z"/>
<path d="M5667 5641 c-5 -20 5 -113 23 -206 8 -47 9 -45 3 15 -3 36 -7 98 -7
138 -1 70 -9 92 -19 53z"/>
<path d="M5595 5629 c-5 -7 -4 -14 1 -16 6 -2 9 -18 8 -36 l-3 -32 8 35 c10
38 0 73 -14 49z"/>
<path d="M8691 5614 c0 -11 3 -14 6 -6 3 7 2 16 -1 19 -3 4 -6 -2 -5 -13z"/>
<path d="M5570 5563 c0 -28 3 -34 10 -23 13 20 13 60 0 60 -5 0 -10 -17 -10
-37z"/>
<path d="M8425 5590 c3 -5 8 -10 11 -10 2 0 4 5 4 10 0 6 -5 10 -11 10 -5 0
-7 -4 -4 -10z"/>
<path d="M5301 5564 c-22 -28 -31 -124 -11 -124 6 0 10 11 10 23 0 13 7 46 15
72 8 27 13 51 11 53 -2 1 -13 -9 -25 -24z"/>
<path d="M5052 5568 c-7 -7 -12 -16 -12 -21 0 -5 7 -1 16 8 9 9 14 18 12 20
-2 3 -10 -1 -16 -7z"/>
<path d="M8402 5539 c4 -29 25 -36 23 -7 -1 12 -7 24 -14 26 -8 3 -12 -4 -9
-19z"/>
<path d="M5245 5510 c-4 -6 -3 -16 3 -22 6 -6 12 -6 17 2 4 6 3 16 -3 22 -6 6
-12 6 -17 -2z"/>
<path d="M5563 5480 c0 -25 2 -35 4 -22 2 12 2 32 0 45 -2 12 -4 2 -4 -23z"/>
<path d="M7841 5466 c-19 -20 -20 -24 -6 -30 11 -4 14 -12 10 -27 -6 -18 -5
-19 14 -7 17 10 20 19 15 48 -8 45 -7 44 -33 16z"/>
<path d="M2907 5473 c-13 -12 -7 -33 8 -33 8 0 15 5 15 10 0 6 9 10 20 10 11
0 20 5 20 10 0 11 -53 14 -63 3z"/>
<path d="M2770 5450 c0 -11 5 -20 10 -20 6 0 10 9 10 20 0 11 -4 20 -10 20 -5
0 -10 -9 -10 -20z"/>
<path d="M3300 5445 c0 -8 4 -15 10 -15 5 0 7 7 4 15 -4 8 -8 15 -10 15 -2 0
-4 -7 -4 -15z"/>
<path d="M9130 5434 c0 -10 7 -14 22 -12 32 5 35 28 4 28 -17 0 -26 -5 -26
-16z"/>
<path d="M7780 5420 c0 -5 7 -7 15 -4 8 4 15 8 15 10 0 2 -7 4 -15 4 -8 0 -15
-4 -15 -10z"/>
<path d="M4980 5411 c0 -5 7 -15 17 -22 15 -13 15 -12 4 9 -12 23 -21 28 -21
13z"/>
<path d="M2890 5361 c-6 -12 -6 -22 0 -26 5 -3 7 -12 3 -20 -3 -9 1 -15 11
-15 12 0 16 9 16 34 0 41 -15 54 -30 27z"/>
<path d="M8946 5355 c4 -8 10 -12 15 -9 11 6 2 24 -11 24 -5 0 -7 -7 -4 -15z"/>
<path d="M5316 5335 c7 -18 -12 -20 -20 -2 -3 6 -3 1 0 -13 9 -34 13 -37 25
-20 9 13 10 13 6 -1 -3 -10 5 -24 24 -38 38 -28 37 -10 -3 45 -33 46 -41 54
-32 29z"/>
<path d="M6611 5200 c-1 -18 18 -40 34 -40 5 0 3 6 -6 13 -9 7 -18 19 -22 27
-5 13 -6 13 -6 0z"/>
<path d="M5400 5044 c-13 -33 -13 -34 5 -34 10 0 15 10 15 30 0 37 -7 38 -20
4z"/>
<path d="M7144 5005 c-9 -22 14 -71 40 -88 35 -23 96 -28 151 -14 28 8 67 12
85 9 37 -5 64 -30 50 -47 -4 -5 -13 -28 -20 -50 -7 -22 -16 -44 -21 -49 -5 -6
-9 -24 -9 -41 0 -23 5 -31 19 -32 22 -2 31 22 31 85 0 46 23 92 46 92 8 0 14
9 14 20 0 16 7 20 33 20 69 0 103 23 50 33 -16 3 -44 9 -63 14 -44 11 -150 -1
-189 -22 -17 -8 -52 -15 -79 -15 -45 0 -53 4 -81 35 -17 20 -31 42 -31 50 0
20 -19 19 -26 0z"/>
<path d="M4818 4893 c-29 -25 -61 -55 -70 -66 -25 -28 -22 -46 2 -19 28 30 80
56 80 41 0 -14 -55 -114 -81 -147 -10 -13 -25 -47 -34 -75 -10 -29 -25 -70
-35 -92 -11 -22 -27 -69 -36 -105 -10 -36 -23 -70 -31 -76 -7 -6 -13 -15 -13
-21 0 -5 -9 -28 -20 -51 -11 -22 -20 -50 -20 -60 0 -25 -67 -98 -86 -94 -8 2
-14 -3 -14 -11 0 -8 -9 -24 -20 -37 l-20 -23 -1 34 c0 19 -4 43 -8 54 -7 18
-10 15 -25 -19 -9 -21 -16 -65 -16 -97 0 -34 -4 -59 -10 -59 -7 0 -8 35 -4
103 6 89 4 104 -10 116 -13 11 -20 11 -28 3 -7 -7 -22 -12 -34 -12 -12 0 -41
-18 -65 -41 -24 -22 -39 -38 -33 -35 6 3 35 8 64 12 64 8 61 -7 -8 -32 -26 -9
-91 -37 -144 -61 -54 -24 -162 -60 -240 -79 -79 -20 -147 -40 -153 -44 -18
-13 -225 -68 -395 -105 -207 -44 -303 -70 -355 -95 -23 -11 -47 -20 -53 -20
-7 0 -12 -5 -12 -10 0 -6 -3 -9 -7 -8 -5 1 -24 -4 -43 -11 -19 -8 -39 -15 -45
-17 -37 -12 -213 -88 -264 -114 -66 -35 -81 -54 -29 -39 21 5 36 5 42 -1 16
-16 25 -12 19 10 -4 16 -2 19 11 14 10 -4 18 0 22 10 3 9 11 16 18 16 6 0 29
9 51 19 22 11 58 26 80 34 51 19 230 88 317 121 79 31 158 44 158 27 0 -6 -6
-11 -14 -11 -9 0 -12 -9 -10 -29 3 -24 -2 -31 -34 -47 -20 -11 -39 -22 -42
-25 -3 -4 -14 -9 -25 -12 -17 -4 -16 -5 5 -6 24 -2 23 -2 -7 -16 -18 -8 -33
-19 -33 -25 0 -5 -8 -10 -19 -10 -10 0 -24 -7 -31 -15 -10 -12 -10 -15 0 -15
27 0 -13 -30 -49 -36 -20 -3 -44 -16 -53 -28 -15 -18 -19 -19 -28 -6 -7 12
-12 12 -22 2 -6 -6 -35 -12 -64 -12 -48 0 -53 -2 -65 -29 -8 -17 -24 -35 -36
-42 -18 -10 -23 -21 -23 -51 0 -27 -4 -38 -15 -38 -8 0 -15 4 -15 9 0 12 -59
71 -71 71 -5 0 -9 -18 -9 -40 0 -29 -4 -40 -15 -40 -13 0 -14 4 -4 21 8 17 8
24 -3 36 -20 19 -66 -2 -74 -34 -4 -13 -10 -23 -15 -23 -18 0 -9 -22 11 -27
12 -3 20 -14 20 -27 1 -11 14 -32 30 -46 17 -13 30 -32 30 -42 0 -15 -9 -18
-55 -18 l-55 0 0 40 c0 42 -24 58 -33 23 -4 -17 -5 -17 -6 0 0 9 -8 17 -17 17
-12 0 -15 -6 -10 -20 3 -11 9 -29 12 -40 8 -24 -23 -29 -32 -5 -8 19 -24 20
-24 2 0 -8 -11 -19 -25 -25 -20 -9 -24 -17 -20 -37 3 -14 7 -37 11 -51 6 -30
20 -22 27 16 4 24 4 24 6 -2 1 -31 21 -37 41 -13 21 25 40 18 40 -14 0 -17 5
-33 10 -36 6 -4 8 -11 5 -16 -4 -5 0 -12 8 -15 17 -6 72 43 81 74 9 28 18 28
35 1 9 -15 15 -18 20 -10 7 11 20 -78 37 -244 3 -33 9 -76 14 -95 4 -19 11
-48 15 -64 5 -23 9 -26 15 -16 16 26 47 -16 59 -80 7 -33 16 -60 22 -60 6 0 7
-19 3 -50 -6 -42 -4 -49 8 -45 22 9 31 -23 13 -41 -8 -9 -15 -17 -15 -19 0
-11 24 -55 30 -55 4 0 10 -9 13 -21 3 -13 12 -19 24 -17 12 2 19 -4 21 -19 5
-36 22 -27 22 11 0 37 14 56 24 31 9 -23 33 -7 42 28 11 49 9 265 -3 332 -7
33 -23 121 -37 195 -14 74 -30 153 -36 175 -6 22 -13 85 -16 139 -4 100 -14
145 -14 68 0 -44 -14 -57 -23 -22 -7 25 -26 26 -35 1 -7 -19 -8 -19 -31 4 -20
21 -21 26 -7 31 20 8 21 24 1 24 -12 0 -15 16 -15 80 0 64 3 80 15 80 11 0 15
-11 15 -40 0 -40 0 -40 38 -40 33 0 39 -4 54 -38 10 -20 20 -54 24 -76 5 -31
9 -35 16 -22 5 9 11 28 12 42 4 35 34 53 89 54 43 0 48 -3 58 -27 5 -16 16
-41 24 -58 7 -16 11 -33 9 -37 -3 -4 -1 -8 5 -8 8 0 43 -52 41 -62 0 -2 6 -25
15 -53 8 -27 15 -60 15 -72 0 -13 5 -23 10 -23 6 0 10 -6 10 -13 0 -7 6 -19
13 -26 6 -6 12 -17 12 -24 0 -6 10 -17 23 -23 12 -6 33 -21 46 -33 12 -11 28
-21 34 -21 7 0 12 -9 12 -20 0 -15 7 -20 24 -20 14 0 28 -5 31 -10 11 -18 25
-10 25 15 0 33 18 32 30 -1 7 -19 15 -24 27 -20 9 4 20 1 24 -5 5 -9 15 -7 39
5 40 19 37 19 43 4 2 -7 2 -3 0 10 -4 24 27 46 35 24 7 -23 20 -12 26 24 8 40
16 45 84 47 27 1 57 8 66 16 9 8 19 11 23 8 3 -4 12 -2 19 4 10 8 20 6 38 -8
19 -14 26 -30 31 -73 10 -90 26 -154 36 -139 4 7 4 16 -1 19 -5 3 -7 16 -3 28
3 12 9 20 13 17 4 -3 11 3 14 12 4 9 2 20 -5 23 -14 9 -7 46 9 42 7 -1 12 11
13 30 0 18 3 27 6 21 2 -7 16 -13 29 -13 22 0 24 -4 24 -49 0 -28 5 -53 10
-56 6 -3 10 -17 10 -31 0 -23 2 -24 79 -24 54 0 81 -4 85 -12 5 -10 7 -10 12
0 3 6 11 12 18 12 7 0 23 11 36 25 13 14 28 25 34 25 27 1 56 39 56 74 0 35 1
36 40 36 25 0 40 -5 40 -12 0 -7 18 -21 40 -31 24 -11 40 -26 40 -36 0 -22 61
-81 84 -81 10 0 27 -12 38 -26 11 -14 27 -23 34 -20 10 4 14 -4 14 -31 0 -24
8 -45 23 -61 17 -20 18 -24 5 -19 -13 5 -18 1 -18 -13 0 -11 3 -19 8 -19 25 4
32 -4 32 -41 0 -28 4 -40 14 -40 8 0 18 -9 21 -20 3 -11 12 -20 18 -20 15 0
70 -68 70 -86 0 -8 9 -16 19 -20 12 -3 18 -15 18 -34 0 -16 8 -36 17 -46 9 -9
19 -26 20 -37 5 -28 12 -34 22 -18 11 17 26 8 44 -27 8 -15 28 -53 45 -84 16
-31 32 -54 36 -51 3 4 6 2 6 -4 0 -6 10 -14 23 -18 19 -6 19 -8 5 -12 -24 -6
-23 -23 1 -23 28 0 37 -20 9 -21 -13 -1 -16 -3 -8 -5 9 -3 23 -22 33 -44 9
-22 22 -40 27 -40 12 0 75 -65 75 -78 0 -4 29 -36 63 -71 34 -35 62 -70 62
-76 0 -6 11 -22 24 -34 18 -17 25 -19 29 -9 7 19 41 -4 45 -31 2 -13 11 -21
22 -21 12 0 20 -8 22 -22 2 -13 10 -23 18 -23 18 0 50 -37 50 -59 0 -8 9 -20
19 -26 26 -14 31 -13 31 6 0 8 5 12 11 8 8 -4 8 -9 0 -17 -33 -33 12 -36 51
-4 l27 22 -17 53 c-10 29 -34 72 -55 95 -49 57 -107 135 -107 146 0 5 -15 22
-32 38 -34 29 -42 40 -105 133 -49 73 -59 89 -78 130 -9 19 -26 45 -37 57 -12
13 -18 23 -13 23 4 0 1 8 -8 18 -10 10 -28 47 -42 83 -14 35 -36 82 -47 104
-12 22 -21 41 -20 43 5 5 -50 92 -58 92 -4 0 -10 8 -13 18 -14 40 -105 201
-111 195 -3 -3 -6 -1 -6 5 0 6 -6 17 -13 24 -29 31 -47 70 -47 103 0 66 57 37
74 -37 6 -24 11 -28 44 -28 31 0 42 -6 66 -38 16 -20 42 -47 58 -60 15 -13 40
-45 55 -70 15 -26 33 -53 40 -60 7 -7 14 -19 14 -25 1 -7 3 -23 5 -37 1 -14
-2 -36 -9 -49 -10 -20 -7 -31 22 -83 37 -67 69 -108 85 -108 6 0 21 -17 34
-38 13 -20 38 -59 57 -85 18 -27 36 -65 40 -85 4 -21 10 -39 13 -42 15 -11 53
-72 49 -76 -3 -3 12 -23 33 -44 31 -32 35 -40 22 -44 -12 -3 -10 -4 3 -3 13 2
19 9 18 22 -1 11 4 23 10 27 9 5 9 10 -1 20 -7 7 -12 37 -12 68 0 45 -6 65
-30 103 -33 53 -37 66 -15 47 25 -21 17 5 -9 29 -26 25 -45 71 -21 51 11 -9
12 -7 8 11 -4 13 -13 31 -22 40 -12 15 -18 16 -29 6 -13 -10 -14 -8 -8 11 7
22 -11 88 -21 78 -3 -2 -18 20 -33 49 -16 30 -38 64 -49 77 -12 12 -20 27 -19
32 2 6 -12 32 -30 58 -18 26 -64 109 -104 185 -39 76 -79 150 -89 165 -32 45
-21 45 20 0 22 -24 45 -60 52 -80 6 -19 25 -56 40 -81 25 -41 77 -132 104
-182 5 -11 15 -19 22 -19 6 0 -5 28 -26 63 -92 151 -104 184 -112 291 -6 82
-13 117 -41 186 -19 47 -40 105 -46 130 -6 25 -29 82 -52 128 -22 45 -40 87
-40 92 0 5 -18 51 -41 102 -49 111 -125 305 -145 368 -14 46 -10 65 7 40 8
-12 9 -10 3 5 -4 11 -10 49 -12 84 -2 35 -7 59 -11 53 -3 -6 -7 8 -8 31 0 23
4 45 10 49 7 4 6 26 -3 69 -28 130 -10 265 45 339 36 49 55 120 61 230 3 52 5
102 6 110 3 40 -2 51 -21 45 -15 -5 -19 1 -25 34 -3 22 -13 46 -21 55 -8 8
-12 22 -9 30 11 28 -14 17 -68 -31z m-439 -1120 c1 -36 -3 -63 -9 -63 -6 0
-10 34 -9 83 1 97 17 79 18 -20z m461 -104 c0 -6 -4 -7 -10 -4 -5 3 -10 11
-10 16 0 6 5 7 10 4 6 -3 10 -11 10 -16z m-463 -11 c-3 -8 -6 -5 -6 6 -1 11 2
17 5 13 3 -3 4 -12 1 -19z m499 -90 c5 -18 9 -37 9 -43 0 -5 5 -13 10 -17 6
-5 5 -8 -3 -8 -9 0 -11 -7 -7 -22 5 -18 4 -20 -4 -8 -6 8 -11 30 -11 49 0 22
-8 43 -22 58 -12 13 -16 23 -10 23 8 0 10 9 6 28 l-6 27 15 -27 c8 -15 19 -42
23 -60z m-499 -90 c-2 -24 -4 -5 -4 42 0 47 2 66 4 43 2 -24 2 -62 0 -85z
m543 -8 c0 -5 -4 -10 -10 -10 -5 0 -10 5 -10 10 0 6 5 10 10 10 6 0 10 -4 10
-10z m-6 -41 c-8 -8 -14 -20 -14 -25 0 -5 5 -1 11 9 13 23 29 22 29 -3 0 -11
-4 -20 -9 -20 -5 0 -11 -7 -15 -15 -4 -12 -2 -13 13 -3 15 9 22 8 36 -6 21
-21 20 -22 -32 -30 -31 -4 -43 -3 -43 6 0 9 -3 8 -10 -2 -6 -9 -10 -10 -10 -3
0 6 5 15 10 18 6 3 10 16 10 28 0 18 -2 20 -11 7 -8 -12 -9 -9 -4 10 3 14 7
30 7 36 1 7 12 11 24 10 20 -1 21 -3 8 -17z m83 -141 c-3 -8 -6 -5 -6 6 -1 11
2 17 5 13 3 -3 4 -12 1 -19z m87 -240 c24 -67 26 -82 16 -98 -20 -32 -80 53
-80 113 0 18 3 37 6 40 14 13 43 -15 58 -55z m-2457 -280 c-3 -7 -5 -2 -5 12
0 14 2 19 5 13 2 -7 2 -19 0 -25z m10 -50 c-3 -8 -6 -5 -6 6 -1 11 2 17 5 13
3 -3 4 -12 1 -19z m2220 6 c-3 -3 -12 -4 -19 -1 -8 3 -5 6 6 6 11 1 17 -2 13
-5z m123 -70 c0 -8 -4 -14 -10 -14 -5 0 -10 9 -10 21 0 11 5 17 10 14 6 -3 10
-13 10 -21z m-2310 -7 c0 -13 -5 -17 -16 -13 -9 3 -18 6 -20 6 -2 0 -4 6 -4
14 0 9 9 14 20 13 12 -1 20 -8 20 -20z m2665 -287 c3 -5 1 -10 -4 -10 -6 0
-11 5 -11 10 0 6 2 10 4 10 3 0 8 -4 11 -10z"/>
<path d="M7623 4898 c-27 -13 -28 -18 -8 -44 14 -19 14 -18 15 4 0 31 31 29
72 -6 49 -41 68 -55 68 -50 0 13 -105 109 -118 107 -4 0 -17 -5 -29 -11z"/>
<path d="M7555 4860 c-6 -18 -9 -20 -16 -9 -7 11 -9 9 -10 -6 -2 -37 2 -50 32
-93 32 -46 35 -63 18 -94 -9 -18 -8 -19 10 -13 15 4 21 2 21 -8 0 -8 7 -20 15
-27 19 -16 19 -6 -2 37 -13 28 -14 41 -5 65 12 34 -6 107 -37 147 l-19 24 -7
-23z"/>
<path d="M7640 4821 c0 -5 7 -12 16 -15 14 -5 15 -4 4 9 -14 17 -20 19 -20 6z"/>
<path d="M7330 4792 c0 -18 3 -31 8 -28 4 2 6 -13 4 -35 -2 -21 -8 -36 -13
-33 -5 3 -7 9 -4 14 5 8 -32 40 -47 40 -5 0 -8 -34 -8 -75 0 -59 3 -77 16 -82
8 -3 20 -1 27 6 8 8 8 11 -1 11 -9 0 -10 5 -4 18 5 9 7 23 5 30 -3 6 1 12 7
12 7 0 10 -8 7 -20 -10 -39 22 -20 43 24 20 45 19 107 -3 103 -6 -1 -16 9 -24
23 l-13 25 0 -33z"/>
<path d="M7396 4795 c4 -8 8 -15 10 -15 2 0 4 7 4 15 0 8 -4 15 -10 15 -5 0
-7 -7 -4 -15z"/>
<path d="M3627 4794 c-4 -4 -7 -14 -7 -23 0 -11 3 -12 11 -4 6 6 10 16 7 23
-2 6 -7 8 -11 4z"/>
<path d="M3806 4721 c-6 -9 35 -24 43 -15 6 5 -18 24 -31 24 -4 0 -9 -4 -12
-9z"/>
<path d="M4625 4640 c-10 -22 -16 -42 -13 -45 3 -3 13 13 23 35 10 22 16 42
13 45 -3 3 -13 -13 -23 -35z"/>
<path d="M7226 4635 c4 -8 8 -15 10 -15 2 0 4 7 4 15 0 8 -4 15 -10 15 -5 0
-7 -7 -4 -15z"/>
<path d="M7127 4602 c-10 -10 -17 -25 -17 -34 0 -23 -10 -28 -32 -15 -16 9
-22 9 -25 0 -3 -7 -17 -13 -31 -13 -15 0 -38 -7 -52 -15 -14 -8 -34 -18 -46
-24 -12 -5 -32 -23 -45 -40 -13 -17 -34 -44 -47 -60 -24 -31 -16 -48 15 -32
82 42 160 71 228 84 44 8 107 23 140 31 33 9 84 16 113 16 60 0 143 24 184 52
17 12 36 17 48 13 23 -7 27 7 6 24 -12 10 -20 9 -38 -2 -13 -8 -40 -18 -61
-21 -21 -4 -35 -10 -33 -14 3 -5 -13 -8 -35 -7 -47 0 -50 11 -6 31 l32 15 -45
-7 c-25 -3 -61 -14 -80 -24 -43 -21 -180 -63 -187 -57 -2 3 20 17 51 33 38 19
56 34 59 51 7 37 -9 36 -27 -2 -16 -32 -46 -49 -46 -25 0 6 5 10 10 10 6 0 10
10 9 23 0 12 -3 16 -6 10 -2 -7 -12 -13 -20 -13 -13 0 -13 3 -3 15 18 21 6 19
-13 -3z"/>
<path d="M3650 4540 c0 -25 -17 -26 -23 -2 -3 11 -5 8 -6 -8 -2 -40 13 -48 72
-37 73 13 77 15 77 30 0 8 -20 18 -51 25 -67 16 -69 15 -69 -8z m50 -10 c12
-8 11 -10 -7 -10 -13 0 -23 5 -23 10 0 13 11 13 30 0z"/>
<path d="M4100 4510 c0 -5 5 -10 11 -10 5 0 7 5 4 10 -3 6 -8 10 -11 10 -2 0
-4 -4 -4 -10z"/>
<path d="M4190 4510 c0 -5 7 -10 16 -10 8 0 12 5 9 10 -3 6 -10 10 -16 10 -5
0 -9 -4 -9 -10z"/>
<path d="M4249 4490 c-4 -56 7 -110 23 -110 14 0 5 97 -11 113 -8 8 -11 7 -12
-3z"/>
<path d="M4010 4477 c0 -19 51 -101 64 -103 14 -2 14 1 1 24 -17 33 -64 90
-65 79z"/>
<path d="M4510 4449 c-7 -11 -10 -23 -7 -25 2 -2 9 7 15 21 14 30 7 33 -8 4z"/>
<path d="M3686 4426 c3 -9 11 -16 16 -16 13 0 5 23 -10 28 -7 2 -10 -2 -6 -12z"/>
<path d="M3778 4432 c-10 -2 -18 -8 -18 -13 0 -11 11 -11 30 1 18 11 11 18
-12 12z"/>
<path d="M4173 4398 c14 -29 22 -38 25 -26 3 18 -25 68 -38 68 -5 0 1 -19 13
-42z"/>
<path d="M3728 4403 c7 -3 16 -2 19 1 4 3 -2 6 -13 5 -11 0 -14 -3 -6 -6z"/>
<path d="M4460 4340 c0 -5 5 -10 10 -10 6 0 10 5 10 10 0 6 -4 10 -10 10 -5 0
-10 -4 -10 -10z"/>
<path d="M3680 4323 c0 -5 11 -8 25 -8 14 0 25 3 25 8 0 4 -11 7 -25 7 -14 0
-25 -3 -25 -7z"/>
<path d="M7360 4315 c-14 -8 -50 -19 -81 -26 -69 -14 -76 -18 -80 -49 -4 -24
-2 -25 36 -22 53 5 105 35 133 77 12 19 21 35 20 35 -2 -1 -14 -7 -28 -15z"/>
<path d="M3870 4297 c14 -8 27 -12 30 -10 7 6 -23 23 -40 23 -8 0 -4 -6 10
-13z"/>
<path d="M2765 4100 c3 -5 8 -10 11 -10 2 0 4 5 4 10 0 6 -5 10 -11 10 -5 0
-7 -4 -4 -10z"/>
<path d="M7495 4093 c6 -6 32 -18 58 -28 27 -10 51 -24 54 -32 3 -7 13 -13 23
-13 28 0 35 -33 11 -49 -12 -7 -21 -21 -21 -30 0 -20 42 -49 48 -32 2 6 22 11
45 11 23 0 37 4 31 8 -6 4 -13 14 -17 22 -4 8 -14 25 -23 38 -16 22 -16 22 17
22 l34 1 -40 21 c-22 12 -74 29 -115 39 -41 9 -84 20 -95 24 -13 5 -17 5 -10
-2z"/>
<path d="M4050 4070 c-13 -8 -13 -10 0 -10 11 0 11 -3 2 -12 -10 -10 -15 -10
-21 1 -6 9 -16 11 -27 6 -18 -7 -18 -8 1 -15 16 -7 13 -9 -15 -10 -52 -1 -137
-26 -120 -34 8 -3 5 -4 -7 -2 -13 2 -23 1 -23 -4 0 -13 -52 -22 -63 -11 -17
17 -31 13 -16 -5 12 -15 10 -16 -21 -10 -26 4 -30 3 -15 -3 17 -8 16 -10 -11
-10 -17 -1 -37 -8 -44 -16 -7 -8 -25 -15 -40 -15 -15 0 -34 -7 -41 -16 -16
-19 -30 -23 156 36 66 21 158 47 205 58 83 19 160 55 160 73 0 6 -8 5 -19 -1
-25 -13 -34 -13 -26 0 8 12 4 12 -15 0z"/>
<path d="M5985 4005 c17 -14 39 -28 50 -31 11 -4 25 -14 32 -23 9 -11 12 -12
13 -3 0 7 5 10 11 6 8 -4 8 -9 0 -17 -8 -8 -2 -15 20 -24 17 -7 40 -13 50 -13
10 0 23 -9 29 -20 6 -11 26 -27 45 -35 19 -7 35 -19 35 -24 0 -6 5 -11 11 -11
6 0 20 -12 31 -26 18 -22 26 -25 57 -19 20 4 46 13 58 21 34 22 95 27 159 14
70 -15 81 -20 63 -31 -12 -7 -12 -9 0 -9 11 0 11 -3 1 -15 -18 -22 -7 -122 19
-168 12 -21 26 -61 32 -88 6 -27 15 -49 20 -49 5 0 9 -12 9 -26 0 -14 4 -23 9
-20 15 9 21 -22 11 -52 -10 -26 -10 -26 6 -7 15 19 16 18 9 -20 -26 -152 -203
-587 -333 -816 -112 -198 -193 -350 -212 -399 -12 -30 -27 -68 -35 -85 -7 -16
-23 -59 -35 -95 -38 -106 -70 -180 -110 -251 -21 -37 -42 -78 -46 -91 -12 -38
-68 -153 -76 -156 -4 -2 -8 -10 -8 -18 0 -25 -16 -15 -27 19 -7 17 -19 70 -28
116 -8 47 -18 87 -22 90 -3 3 -3 -10 1 -29 12 -61 25 -163 27 -212 3 -54 -32
-118 -66 -118 -17 0 -17 -2 -5 -10 12 -8 12 -12 2 -18 -6 -5 -11 -19 -10 -33
3 -36 -24 -119 -39 -119 -17 0 -17 -16 1 -32 9 -9 11 -20 5 -34 -5 -14 -3 -28
6 -40 9 -13 10 -25 3 -43 -5 -14 -6 -60 -2 -105 7 -76 8 -79 17 -46 l10 35 7
-30 c5 -23 8 -11 14 50 4 44 11 102 17 128 5 26 9 61 9 77 0 35 19 50 27 21 5
-21 18 -25 58 -21 23 2 55 28 55 43 0 6 -9 1 -20 -11 -24 -26 -52 -28 -74 -6
-20 19 -20 37 -1 102 18 60 51 90 74 68 7 -8 17 -43 20 -78 7 -60 7 -61 15
-28 11 45 23 60 50 60 20 1 20 1 2 15 -10 8 -15 19 -10 26 5 9 2 10 -11 5 -11
-4 -22 -2 -27 6 -10 17 -10 31 1 24 10 -7 38 32 46 65 7 29 -29 59 -39 33 -3
-8 -10 -13 -15 -9 -5 3 -13 0 -17 -6 -4 -8 -3 -9 4 -5 7 4 12 2 12 -3 0 -6 -6
-11 -14 -11 -7 0 -16 -13 -19 -30 -8 -38 -24 -39 -23 -1 1 16 4 27 9 24 4 -2
7 2 7 9 1 22 86 188 93 181 4 -3 7 1 7 10 0 10 5 17 11 17 5 0 7 5 4 10 -3 6
-3 16 2 23 4 6 8 18 9 25 2 8 6 17 10 20 4 4 4 -1 1 -10 -4 -10 -2 -18 3 -18
6 0 10 7 10 16 0 8 5 12 11 9 6 -4 8 -13 5 -21 -12 -32 35 -10 102 48 l33 28
-28 0 c-21 0 -24 3 -15 12 14 14 16 58 3 58 -5 0 -14 -7 -21 -15 -14 -17 -35
-21 -25 -5 3 5 1 18 -4 27 -9 15 -10 14 -11 -10 0 -16 -5 -37 -10 -48 -7 -13
-7 -19 0 -19 5 0 10 5 10 12 0 9 3 9 11 1 15 -15 -11 -43 -40 -43 l-21 0 20
35 c11 20 20 45 20 56 0 33 28 89 44 89 9 0 16 -8 16 -17 0 -13 3 -14 11 -6 9
9 8 24 -4 60 -15 45 -14 133 2 133 4 0 13 20 20 45 18 61 119 265 173 347 120
186 159 253 226 387 67 133 93 158 37 34 -13 -29 -21 -61 -18 -71 2 -11 0 -23
-5 -26 -6 -3 -9 3 -6 16 2 13 -4 1 -12 -27 -9 -27 -21 -53 -26 -56 -6 -4 -8
-13 -6 -20 2 -7 -1 -25 -8 -38 -7 -14 -11 -28 -8 -33 3 -4 1 -8 -5 -8 -17 0
-43 -68 -43 -110 1 -44 -15 -55 -20 -15 -3 29 -21 35 -27 8 -2 -10 -11 -23
-20 -30 -15 -11 -15 -12 2 -18 9 -4 17 -12 17 -17 0 -6 -7 -7 -16 -4 -10 4
-14 1 -12 -10 5 -27 23 -20 33 14 9 33 19 40 30 22 3 -5 15 -10 26 -10 10 0
19 -5 19 -12 0 -6 3 -9 6 -5 3 3 18 -5 32 -19 31 -28 52 -31 52 -7 0 13 3 14
12 5 18 -18 27 -110 11 -123 -14 -12 -18 -59 -5 -59 4 0 13 9 20 20 18 29 29
25 36 -12 4 -18 10 -28 14 -23 11 16 99 75 111 75 6 0 11 -5 11 -10 0 -16 -29
-70 -38 -70 -11 0 -60 -43 -185 -161 -62 -58 -141 -130 -177 -160 -36 -29
-129 -117 -208 -195 -158 -157 -178 -190 -165 -280 7 -51 20 -52 42 -6 9 17
21 30 28 27 15 -5 28 12 37 48 3 15 11 27 16 27 6 0 10 6 10 13 0 17 40 53 70
62 50 15 150 77 150 93 0 8 3 12 7 9 9 -9 53 33 53 50 0 7 4 13 8 13 5 0 17
18 28 40 10 22 23 40 27 40 5 0 1 7 -7 16 -18 17 -21 34 -7 34 18 0 61 47 61
65 0 22 60 77 77 71 6 -3 15 4 18 15 4 10 11 19 16 19 5 0 9 7 9 15 0 8 6 15
13 15 8 0 20 11 27 25 12 23 14 23 26 7 12 -15 13 -15 14 -1 0 9 7 19 15 23 8
3 15 16 15 30 0 14 5 28 11 32 6 3 19 26 29 50 11 24 24 44 30 44 5 0 10 6 10
12 0 7 17 28 38 47 23 21 32 35 25 38 -7 3 -13 9 -13 15 0 6 6 8 14 5 15 -6
36 31 36 63 0 11 9 28 20 38 13 12 25 45 34 88 7 38 18 79 24 90 6 12 9 24 5
27 -3 3 -2 14 1 24 6 15 9 15 17 3 8 -11 9 -3 6 30 -3 25 -3 39 0 33 7 -18 23
-16 23 2 0 9 9 15 23 15 68 1 117 13 117 29 1 13 4 12 19 -6 17 -21 20 -21 26
-5 4 9 9 37 12 62 3 25 9 47 14 48 5 2 9 14 9 27 0 13 10 31 22 39 l21 15 -29
11 c-15 6 -37 9 -48 6 -37 -10 -71 19 -84 71 -13 50 -52 103 -76 103 -15 0
-26 77 -31 220 -2 47 -11 154 -21 237 -14 123 -14 155 -4 168 23 28 40 18 40
-25 0 -28 6 -45 20 -57 11 -10 20 -24 20 -31 0 -8 8 -30 17 -49 16 -34 17 -34
25 -14 5 15 1 41 -12 79 -26 73 -26 124 0 147 19 17 21 17 57 0 57 -26 64 -34
53 -56 -10 -17 8 -205 26 -275 3 -13 7 -40 7 -60 2 -32 7 -39 46 -60 47 -25
61 -41 65 -77 2 -12 6 -29 8 -37 8 -23 26 -110 34 -160 3 -25 10 -49 14 -55 4
-5 13 -39 20 -75 7 -36 22 -83 34 -105 18 -34 21 -58 21 -156 0 -84 -4 -121
-14 -132 -7 -10 -11 -17 -8 -17 3 0 0 -15 -8 -34 -8 -18 -11 -36 -8 -40 4 -3
0 -6 -9 -6 -8 0 -20 -11 -28 -24 -10 -20 -10 -28 3 -46 l15 -22 16 30 c17 33
34 42 75 42 16 0 37 10 50 24 14 15 29 22 39 19 11 -5 14 -2 9 10 -3 8 0 21 8
27 7 6 16 29 20 51 4 21 11 41 16 45 5 3 9 20 9 37 0 18 4 46 9 62 4 17 12 66
16 109 l7 79 -31 -6 c-23 -5 -33 -2 -40 12 -18 33 -40 105 -35 113 3 4 1 8 -4
8 -5 0 -19 37 -31 83 -12 45 -28 105 -35 134 -8 29 -17 69 -20 90 -16 102 -31
155 -67 233 -22 46 -41 96 -43 111 -1 16 -9 35 -16 44 -7 8 -10 18 -7 22 12
12 73 -22 114 -64 31 -32 50 -43 72 -43 77 0 104 -41 104 -154 -1 -159 -8
-289 -14 -266 -5 16 -7 2 -8 -40 -1 -71 19 -162 46 -213 10 -18 21 -41 24 -52
6 -17 7 -15 8 8 1 15 6 26 12 25 6 -2 20 20 31 47 17 43 19 63 14 145 -6 91 7
204 32 270 5 14 12 61 16 105 4 44 14 90 21 102 11 16 12 23 2 26 -6 3 16 6
50 6 34 1 64 -3 67 -8 3 -4 22 -11 43 -14 47 -8 206 -59 214 -69 3 -4 21 -10
40 -12 18 -3 35 -6 37 -7 1 -1 5 -2 10 -3 54 -14 140 -85 127 -105 -3 -5 1
-11 7 -14 10 -3 13 -44 13 -163 1 -87 5 -214 9 -282 8 -115 10 -124 32 -132
12 -5 35 -5 50 -1 24 6 30 14 37 52 14 78 11 241 -7 349 -18 109 -35 188 -45
205 -3 6 -7 20 -9 32 -2 20 0 21 30 12 18 -6 42 -13 53 -16 37 -9 64 -26 58
-36 -4 -6 0 -8 10 -4 11 4 17 1 17 -8 0 -8 6 -15 14 -15 8 0 23 -3 33 -6 15
-5 15 -4 3 5 -9 5 -32 25 -52 44 -27 26 -57 40 -116 56 -43 11 -92 21 -108 21
-38 0 -183 39 -314 84 -173 60 -214 67 -404 64 -187 -2 -217 4 -283 62 -37 33
-104 56 -188 65 -87 10 -156 25 -150 35 3 4 21 11 40 14 35 7 36 8 31 49 -3
23 -5 43 -5 45 -1 1 -10 -2 -21 -8 -11 -6 -32 -9 -47 -8 -25 1 -90 -25 -103
-41 -20 -27 -153 -60 -165 -41 -3 6 -16 5 -31 0 -14 -6 -30 -8 -35 -4 -5 3 -9
0 -9 -5 0 -6 -5 -11 -11 -11 -5 0 -8 4 -4 9 6 10 -9 16 -70 26 -22 3 -55 15
-74 26 -19 11 -40 18 -48 15 -23 -9 -65 5 -59 20 5 13 -21 21 -84 23 -19 1
-43 4 -52 7 -12 3 -18 0 -18 -10 0 -15 -21 -21 -62 -18 -10 1 -18 -2 -18 -7 0
-5 8 -12 18 -14 9 -3 -9 -5 -40 -6 -47 -1 -58 2 -58 15 0 14 -3 14 -15 4 -12
-10 -18 -10 -29 0 -8 6 -34 13 -58 14 -24 2 -68 15 -98 29 -70 32 -117 47
-144 47 -19 -1 -18 -3 9 -25z m953 -204 c-13 -22 -26 -41 -30 -41 -12 0 -10 8
18 51 33 52 43 44 12 -10z m-598 -11 c0 -5 -2 -10 -4 -10 -3 0 -8 5 -11 10 -3
6 -1 10 4 10 6 0 11 -4 11 -10z m1437 -612 c-3 -8 -6 -5 -6 6 -1 11 2 17 5 13
3 -3 4 -12 1 -19z m-652 -170 c-4 -62 -13 -147 -21 -188 -24 -118 -32 -106
-14 18 5 37 12 115 16 175 3 59 10 107 15 107 6 0 8 -43 4 -112z m75 -218 c0
-5 -2 -10 -4 -10 -3 0 -8 5 -11 10 -3 6 -1 10 4 10 6 0 11 -4 11 -10z m-325
-558 c-8 -8 -25 10 -19 20 4 6 9 5 15 -3 4 -7 6 -15 4 -17z"/>
<path d="M2798 4003 c7 -3 16 -2 19 1 4 3 -2 6 -13 5 -11 0 -14 -3 -6 -6z"/>
<path d="M7372 3978 c-7 -7 -12 -22 -12 -35 0 -13 -5 -23 -11 -23 -5 0 -7 -5
-4 -10 4 -6 2 -17 -4 -24 -14 -16 14 -31 87 -45 71 -15 82 -5 38 33 -19 18
-42 49 -51 68 -17 43 -28 51 -43 36z"/>
<path d="M3460 3870 c-23 -7 -23 -8 -3 -9 12 -1 25 4 28 9 3 6 5 10 3 9 -2 -1
-14 -5 -28 -9z"/>
<path d="M3215 3840 c-13 -5 -14 -9 -5 -9 8 0 24 4 35 9 13 5 14 9 5 9 -8 0
-24 -4 -35 -9z"/>
<path d="M3235 3824 l-40 -13 40 5 c40 6 52 11 44 18 -2 2 -22 -3 -44 -10z"/>
<path d="M3158 3815 c-2 -3 -19 -7 -37 -9 -18 -2 -38 -9 -44 -16 -9 -10 -8
-11 8 -7 11 3 35 8 52 12 18 4 35 11 38 16 6 9 -8 13 -17 4z"/>
<path d="M7726 3775 c-8 -8 -20 -15 -27 -15 -7 0 -10 -3 -6 -6 11 -11 67 7 67
22 0 18 -15 18 -34 -1z"/>
<path d="M7776 3776 c3 -8 13 -17 22 -20 10 -2 6 -4 -8 -3 -14 1 -42 -3 -62
-7 -29 -6 -41 -4 -53 8 -17 17 -35 21 -35 8 0 -31 195 -65 254 -44 18 7 59 12
92 13 55 1 57 2 24 10 -19 5 -64 11 -100 15 -36 3 -78 12 -94 20 -37 18 -47
18 -40 0z"/>
<path d="M2990 3760 c0 -5 4 -10 9 -10 6 0 13 5 16 10 3 6 -1 10 -9 10 -9 0
-16 -4 -16 -10z"/>
<path d="M2915 3729 c-22 -10 -29 -16 -15 -13 38 10 70 23 70 29 0 8 -13 5
-55 -16z"/>
<path d="M8095 3716 c28 -7 57 -16 64 -21 9 -5 12 -4 7 3 -8 13 -71 32 -101
31 -11 0 3 -6 30 -13z"/>
<path d="M2845 3700 c-3 -5 -1 -10 4 -10 6 0 11 5 11 10 0 6 -2 10 -4 10 -3 0
-8 -4 -11 -10z"/>
<path d="M8210 3686 c0 -2 7 -7 16 -10 8 -3 12 -2 9 4 -6 10 -25 14 -25 6z"/>
<path d="M8256 3670 c6 -6 32 -16 60 -24 27 -7 58 -17 68 -21 13 -6 17 -5 13
2 -4 6 -28 16 -54 22 -27 7 -56 17 -65 22 -23 12 -35 12 -22 -1z"/>
<path d="M2710 3640 c-9 -6 -10 -10 -3 -10 6 0 15 5 18 10 8 12 4 12 -15 0z"/>
<path d="M3010 3610 c-13 -8 -13 -10 2 -10 9 0 20 5 23 10 8 13 -5 13 -25 0z"/>
<path d="M8418 3613 c7 -3 16 -2 19 1 4 3 -2 6 -13 5 -11 0 -14 -3 -6 -6z"/>
<path d="M8548 3583 c12 -2 30 -2 40 0 9 3 -1 5 -23 4 -22 0 -30 -2 -17 -4z"/>
<path d="M7172 3535 c0 -16 2 -22 5 -12 2 9 2 23 0 30 -3 6 -5 -1 -5 -18z"/>
<path d="M8123 3540 c-3 -11 -9 -20 -13 -20 -14 0 2 -153 18 -169 12 -12 15
-12 23 0 8 13 13 42 12 82 0 9 3 17 6 17 3 0 12 4 19 9 10 6 6 18 -18 55 -17
25 -34 46 -37 46 -3 0 -7 -9 -10 -20z"/>
<path d="M7184 3441 c3 -28 10 -59 15 -68 5 -10 13 -29 19 -43 8 -20 9 -17 5
20 -3 25 -10 53 -14 62 -5 9 -9 28 -9 42 0 14 -5 28 -11 31 -7 5 -9 -9 -5 -44z"/>
<path d="M2254 3361 c-42 -19 -66 -56 -57 -89 2 -11 0 -23 -6 -26 -15 -10 -14
-36 2 -36 13 0 97 118 97 137 0 6 5 13 12 15 7 3 8 7 2 10 -5 4 -28 -1 -50
-11z"/>
<path d="M7250 3260 c0 -5 5 -10 11 -10 5 0 7 5 4 10 -3 6 -8 10 -11 10 -2 0
-4 -4 -4 -10z"/>
<path d="M2036 3233 c-6 -14 -5 -15 5 -6 7 7 10 15 7 18 -3 3 -9 -2 -12 -12z"/>
<path d="M2400 3225 c0 -9 6 -12 15 -9 8 4 15 10 15 15 0 5 -7 9 -15 9 -8 0
-15 -7 -15 -15z"/>
<path d="M2145 3200 c3 -5 -1 -12 -8 -17 -17 -10 -29 -75 -13 -70 12 4 56 65
56 77 0 4 -9 10 -20 13 -11 3 -18 1 -15 -3z"/>
<path d="M8945 3175 c-3 -8 -7 -22 -10 -31 -3 -8 1 -21 8 -28 10 -10 12 -4 14
31 1 43 -4 56 -12 28z"/>
<path d="M1940 3101 c0 -5 5 -13 10 -16 6 -3 10 -2 10 4 0 5 -4 13 -10 16 -5
3 -10 2 -10 -4z"/>
<path d="M2076 3086 c3 -9 1 -16 -5 -16 -12 0 -65 -79 -58 -87 6 -5 77 86 77
98 0 4 -4 11 -10 14 -6 3 -7 -1 -4 -9z"/>
<path d="M8916 3051 c-4 -6 -2 -11 4 -11 7 0 8 -6 0 -19 -16 -30 -13 -46 5
-31 17 14 19 38 6 59 -6 9 -11 10 -15 2z"/>
<path d="M2183 3001 c-16 -14 -19 -21 -10 -30 8 -8 7 -11 -5 -11 -9 0 -18 -12
-21 -29 -3 -16 -13 -36 -22 -44 -8 -9 -15 -23 -15 -32 0 -9 -5 -25 -10 -35
-11 -21 -2 -100 11 -100 5 0 9 7 9 15 0 8 7 15 15 15 8 0 15 -7 15 -15 0 -8 5
-15 11 -15 6 0 22 -14 36 -30 17 -20 31 -29 43 -25 13 4 20 -3 28 -27 9 -29
10 -24 7 35 -2 37 -7 71 -10 76 -3 5 -6 51 -6 103 -1 145 -25 192 -76 149z"/>
<path d="M1986 2973 c-6 -14 -5 -15 5 -6 7 7 10 15 7 18 -3 3 -9 -2 -12 -12z"/>
<path d="M3185 2790 c3 -5 8 -10 11 -10 2 0 4 5 4 10 0 6 -5 10 -11 10 -5 0
-7 -4 -4 -10z"/>
<path d="M3560 2711 c0 -17 18 -21 24 -6 3 9 0 15 -9 15 -8 0 -15 -4 -15 -9z"/>
<path d="M2241 2544 c0 -11 3 -14 6 -6 3 7 2 16 -1 19 -3 4 -6 -2 -5 -13z"/>
<path d="M3731 2546 c-7 -8 -24 -17 -38 -21 l-26 -6 7 -92 c4 -51 9 -105 11
-122 4 -24 14 -133 15 -167 0 -5 6 -8 14 -8 18 0 28 -27 20 -52 -3 -11 1 -27
9 -36 8 -9 21 -37 28 -62 7 -25 18 -52 26 -61 8 -9 15 -51 18 -100 10 -168 16
-220 31 -247 7 -15 14 -33 14 -39 0 -16 12 -16 29 0 11 10 14 9 18 -1 3 -8 11
-5 24 10 l19 23 6 -22 c10 -36 23 -27 26 20 2 27 7 41 15 40 24 -5 6 138 -26
204 -16 33 -35 79 -41 104 -7 24 -16 53 -21 64 -7 18 -36 162 -54 269 -4 21
-12 48 -20 60 -7 12 -23 63 -35 114 -12 50 -26 92 -31 92 -5 0 -9 11 -9 25 0
28 -12 32 -29 11z m6 -72 c-3 -3 -12 -4 -19 -1 -8 3 -5 6 6 6 11 1 17 -2 13
-5z"/>
<path d="M3440 2525 c0 -9 40 -45 50 -45 16 0 12 15 -8 33 -18 16 -42 23 -42
12z"/>
<path d="M2250 2495 c0 -8 4 -15 10 -15 5 0 7 7 4 15 -4 8 -8 15 -10 15 -2 0
-4 -7 -4 -15z"/>
<path d="M2650 2464 c0 -8 5 -12 10 -9 6 3 10 10 10 16 0 5 -4 9 -10 9 -5 0
-10 -7 -10 -16z"/>
<path d="M2681 2430 c0 -33 1 -34 11 -12 8 17 8 26 0 34 -9 9 -12 4 -11 -22z"/>
<path d="M2310 2434 c0 -13 18 -39 24 -34 2 3 -2 14 -10 24 -8 11 -14 16 -14
10z"/>
<path d="M2330 2371 c0 -5 5 -13 10 -16 6 -3 10 -2 10 4 0 5 -4 13 -10 16 -5
3 -10 2 -10 -4z"/>
<path d="M5382 2370 c6 -26 113 -210 122 -210 4 0 2 10 -6 23 -8 12 -34 58
-58 102 -43 81 -65 113 -58 85z"/>
<path d="M2476 2290 c2 -41 3 -80 3 -86 1 -5 9 -19 19 -30 9 -10 18 -35 19
-54 5 -76 9 -98 21 -112 14 -17 42 -159 34 -172 -3 -5 2 -7 11 -3 13 5 17 1
17 -19 0 -14 4 -22 10 -19 6 3 10 -3 10 -14 0 -12 6 -21 13 -21 8 0 7 -4 -3
-10 -11 -7 -12 -12 -3 -18 6 -4 11 -16 10 -27 -2 -16 5 -21 36 -23 27 -2 37 1
37 12 0 24 -11 46 -21 40 -5 -3 -9 2 -9 10 0 9 -9 32 -19 52 -11 20 -17 43
-14 52 4 9 2 13 -4 9 -11 -7 -32 29 -31 53 0 8 -12 56 -27 105 -15 50 -29 101
-32 115 -3 14 -9 30 -13 35 -4 6 -11 24 -15 40 -5 17 -10 36 -12 42 -2 7 -6
26 -10 43 -3 16 -9 30 -13 30 -5 0 -10 10 -12 23 -3 12 -3 -12 -2 -53z m24
-54 c0 -3 -4 -8 -10 -11 -5 -3 -10 -1 -10 4 0 6 5 11 10 11 6 0 10 -2 10 -4z"/>
<path d="M6627 2166 c-3 -8 -2 -18 4 -22 16 -9 22 2 11 21 -8 15 -10 16 -15 1z"/>
<path d="M2760 2150 c0 -5 5 -10 10 -10 6 0 10 5 10 10 0 6 -4 10 -10 10 -5 0
-10 -4 -10 -10z"/>
<path d="M5515 2130 c15 -50 75 -160 87 -160 7 0 -77 168 -89 180 -3 3 -2 -6
2 -20z"/>
<path d="M2814 2129 c-3 -6 -1 -16 5 -22 8 -8 11 -5 11 11 0 24 -5 28 -16 11z"/>
<path d="M2805 1914 c4 -24 3 -34 -4 -29 -7 3 -11 -2 -11 -14 0 -12 6 -21 13
-21 9 0 8 -3 -2 -9 -9 -6 -9 -10 -2 -12 6 -2 13 -27 15 -54 3 -28 9 -68 15
-90 15 -58 50 -153 51 -135 0 13 1 13 10 0 14 -21 12 -30 -5 -30 -8 0 -15 -2
-15 -4 0 -9 70 -76 79 -76 6 0 11 -7 11 -15 0 -20 22 -19 40 3 22 25 41 85 31
92 -5 3 -12 59 -16 125 -6 112 -24 210 -46 245 -5 8 -13 25 -19 38 -11 26 -60
31 -84 7 -8 -8 -22 -15 -30 -15 -9 0 -16 7 -16 15 0 8 -5 15 -11 15 -7 0 -9
-12 -4 -36z"/>
<path d="M5660 1881 c5 -11 15 -23 21 -27 6 -3 3 5 -6 20 -20 30 -30 35 -15 7z"/>
<path d="M6154 1784 c3 -9 6 -18 6 -20 0 -2 4 -4 8 -4 4 0 8 9 8 20 0 11 -7
20 -14 20 -9 0 -12 -6 -8 -16z"/>
<path d="M2667 1663 c-13 -12 -7 -23 13 -23 11 0 20 -3 20 -8 0 -4 -9 -13 -20
-20 -21 -13 -27 -42 -9 -42 6 0 9 7 5 15 -3 8 -1 15 4 15 6 0 10 -7 10 -15 0
-13 2 -14 14 -3 8 7 10 15 5 16 -6 3 -5 9 1 17 8 10 7 19 -7 34 -19 22 -26 25
-36 14z"/>
<path d="M6073 1532 c-9 -15 -8 -19 3 -19 8 0 12 3 9 5 -3 3 0 11 6 19 6 7 7
13 3 13 -5 0 -14 -8 -21 -18z"/>
<path d="M6028 1487 c-3 -19 -2 -25 4 -19 6 6 8 18 6 28 -3 14 -5 12 -10 -9z"/>
<path d="M6090 1200 c-12 -8 -9 -10 13 -10 15 0 27 5 27 10 0 13 -20 13 -40 0z"/>
<path d="M6871 1184 c0 -11 3 -14 6 -6 3 7 2 16 -1 19 -3 4 -6 -2 -5 -13z"/>
<path d="M7052 1175 c0 -16 2 -22 5 -12 2 9 2 23 0 30 -3 6 -5 -1 -5 -18z"/>
<path d="M9237 1170 c-32 -4 -63 -12 -69 -18 -19 -19 -1 -42 33 -42 37 0 39
12 -26 -155 l-47 -119 23 -19 c12 -10 25 -14 29 -10 4 4 19 44 34 88 16 44 43
113 61 153 33 70 35 72 69 72 29 0 36 4 36 20 0 38 -32 44 -143 30z"/>
<path d="M10127 1173 c-4 -3 -7 -15 -7 -25 0 -11 -17 -45 -38 -76 -47 -69
-112 -198 -112 -222 0 -20 35 -54 48 -46 5 3 12 19 16 36 7 39 76 200 85 200
4 0 3 -41 -2 -91 -7 -80 -6 -93 9 -110 9 -10 20 -19 24 -19 4 0 17 23 31 52
30 65 98 172 105 165 3 -3 -4 -33 -15 -67 -11 -34 -23 -84 -27 -110 -6 -43 -4
-49 16 -60 29 -16 36 -5 45 69 4 31 23 103 42 160 l35 103 -21 21 -21 21 -41
-39 c-23 -22 -59 -67 -81 -100 l-40 -60 5 86 c3 48 2 91 -2 96 -8 14 -46 25
-54 16z"/>
<path d="M8919 1123 c-5 -16 -12 -34 -14 -40 -2 -7 -20 -13 -40 -13 -34 0 -35
-2 -35 -37 0 -5 11 -7 25 -7 28 1 30 -4 13 -57 -10 -35 -15 -39 -44 -39 -20 0
-34 -6 -38 -16 -9 -23 -8 -24 25 -24 28 0 31 -3 25 -24 -3 -13 -9 -31 -12 -40
-4 -12 0 -16 16 -16 16 0 26 10 37 40 14 36 20 40 50 40 l35 0 -7 -40 c-6 -35
-4 -40 13 -40 13 0 24 12 34 39 14 34 21 40 49 43 46 4 55 38 10 38 -17 0 -31
1 -31 3 0 2 7 24 16 50 15 43 19 47 49 47 21 0 35 6 39 16 9 23 8 24 -25 24
-28 0 -31 3 -25 24 3 13 9 31 12 40 5 12 0 16 -18 16 -20 0 -27 -8 -38 -40
-12 -36 -17 -40 -47 -40 -27 0 -33 4 -33 21 0 11 5 29 10 40 9 16 7 19 -15 19
-19 0 -28 -7 -36 -27z m84 -119 c-1 -11 -7 -32 -12 -47 -9 -22 -17 -27 -46
-27 -39 0 -40 2 -23 51 14 40 23 48 57 45 20 -1 25 -7 24 -22z"/>
<path d="M9823 1063 c-3 -10 -25 -65 -49 -123 l-44 -105 21 -18 c12 -10 26
-14 30 -10 4 4 19 42 34 83 29 82 48 110 77 110 10 0 18 -1 18 -3 0 -1 -13
-34 -30 -72 -35 -83 -37 -110 -9 -125 17 -10 21 -8 25 7 3 10 20 56 38 103 27
70 31 90 23 113 -12 35 -30 43 -63 29 -19 -9 -24 -9 -24 2 0 8 -7 17 -16 20
-22 9 -24 8 -31 -11z"/>
<path d="M9363 1028 c-51 -48 -73 -90 -73 -143 0 -40 36 -85 68 -85 50 0 121
80 136 156 6 27 2 37 -33 73 -22 22 -42 41 -45 41 -4 0 -27 -19 -53 -42z m77
-56 c0 -67 -78 -154 -96 -107 -14 35 49 145 82 145 10 0 14 -12 14 -38z"/>
<path d="M9597 1030 c-83 -73 -100 -183 -34 -220 25 -14 30 -13 64 5 48 26 93
90 100 142 5 36 2 43 -20 58 -15 9 -29 25 -32 36 -9 28 -27 23 -78 -21z m80
-35 c7 -20 -22 -95 -48 -123 -31 -34 -49 -28 -49 14 0 69 78 157 97 109z"/>
<path d="M10480 1063 c-22 -8 -79 -64 -100 -98 -10 -16 -21 -49 -25 -72 -6
-37 -3 -45 20 -69 22 -22 33 -25 62 -21 44 8 83 32 83 53 0 13 -6 15 -27 9
-68 -19 -96 -4 -79 41 5 14 8 14 27 0 19 -13 26 -13 49 -1 39 20 80 72 80 101
0 44 -45 73 -90 57z m40 -52 c0 -23 -46 -63 -69 -59 l-24 3 27 33 c26 30 66
44 66 23z"/>
<path d="M5910 1010 c0 -5 5 -10 10 -10 6 0 19 -9 30 -20 11 -11 28 -19 38
-19 16 1 16 2 0 6 -10 2 -18 9 -18 15 0 5 7 8 15 4 8 -3 15 -1 15 4 0 6 -11
10 -24 10 -14 0 -28 5 -31 10 -3 6 -13 10 -21 10 -8 0 -14 -4 -14 -10z"/>
<path d="M8720 606 c0 -13 -6 -27 -12 -30 -10 -5 -10 -7 0 -12 8 -4 12 -29 12
-73 0 -69 10 -91 42 -91 22 0 24 18 3 26 -11 5 -15 22 -15 70 0 50 3 64 15 64
8 0 15 4 15 9 0 5 -7 11 -15 15 -8 3 -15 15 -15 26 0 11 -7 20 -15 20 -9 0
-15 -9 -15 -24z"/>
<path d="M8844 578 c-46 -22 -59 -107 -23 -152 16 -20 29 -26 58 -26 53 0 83
33 83 96 1 40 -3 51 -26 71 -29 24 -58 28 -92 11z m84 -51 c31 -66 -37 -140
-80 -87 -20 25 -24 71 -7 101 16 31 70 22 87 -14z"/>
<path d="M9027 570 c-47 -37 -44 -135 4 -160 43 -23 94 -9 114 31 24 45 19 87
-14 120 -35 34 -68 37 -104 9z m94 -37 c17 -43 0 -95 -34 -107 -37 -14 -62 11
-62 63 0 48 19 71 56 71 23 0 32 -6 40 -27z"/>
<path d="M9248 576 c-16 -8 -28 -11 -28 -5 0 5 -4 9 -10 9 -6 0 -10 -37 -10
-91 0 -68 3 -90 13 -87 7 3 13 29 15 68 3 73 15 92 51 88 25 -3 26 -5 29 -80
2 -60 6 -78 17 -78 12 0 15 17 15 79 0 71 -2 82 -22 95 -28 20 -36 20 -70 2z"/>
<path d="M9442 574 c-12 -8 -22 -10 -22 -5 0 6 -7 11 -15 11 -12 0 -15 -17
-15 -91 0 -68 3 -90 13 -87 7 3 13 29 15 68 3 71 13 90 47 90 27 0 35 -22 35
-103 0 -42 3 -58 13 -55 7 3 13 29 15 68 3 71 15 92 46 88 19 -3 22 -11 26
-77 3 -47 10 -76 18 -79 9 -3 12 17 12 77 0 76 -2 82 -26 98 -24 15 -29 16
-54 1 -23 -13 -29 -13 -45 -2 -24 18 -36 18 -63 -2z"/>
<path d="M9700 562 c-60 -60 -29 -162 49 -162 34 0 81 31 81 53 0 14 -26 6
-43 -13 -9 -11 -25 -20 -35 -20 -23 0 -52 30 -52 53 0 14 11 17 65 17 62 0 65
1 65 24 0 33 -29 65 -67 72 -27 5 -37 1 -63 -24z m88 -14 c26 -26 13 -38 -38
-38 -54 0 -55 1 -40 31 12 22 59 26 78 7z"/>
<path d="M10003 580 c-30 -12 -43 -41 -43 -93 0 -53 30 -87 77 -87 36 0 81 46
64 63 -7 7 -17 2 -31 -16 -24 -31 -42 -34 -64 -11 -19 18 -22 94 -4 112 19 19
55 14 72 -10 12 -17 19 -19 27 -11 9 9 5 18 -14 37 -27 27 -47 31 -84 16z"/>
<path d="M10159 561 c-59 -59 -27 -161 50 -161 55 0 81 32 81 97 0 44 -4 55
-26 72 -37 29 -70 26 -105 -8z m99 -34 c31 -66 -37 -140 -80 -87 -20 25 -24
71 -7 101 16 31 70 22 87 -14z"/>
<path d="M10388 576 c-16 -8 -28 -11 -28 -5 0 5 -7 9 -15 9 -12 0 -14 -16 -12
-87 1 -58 6 -88 15 -91 9 -3 12 14 12 60 0 74 15 102 51 96 23 -3 24 -7 27
-80 2 -60 6 -78 17 -78 12 0 15 15 15 68 0 72 10 92 46 92 26 0 34 -23 34
-103 0 -42 3 -58 13 -55 15 5 21 67 12 126 -8 53 -40 71 -85 49 -23 -12 -30
-12 -45 0 -23 16 -24 16 -57 -1z"/>
<path d="M9880 420 c0 -11 7 -20 15 -20 8 0 15 9 15 20 0 11 -7 20 -15 20 -8
0 -15 -9 -15 -20z"/>
</g>
</svg>
